<svg id="Layer_1" data-name="Layer 1" xmlns="http://www.w3.org/2000/svg" viewBox="0 0 273.75 365"><defs><style>.cls-1{fill:#181917;}.cls-2{fill:#da251c;}.cls-3{fill:#171418;}.cls-4{fill:#8f8c8b;}.cls-5{fill:#fefefe;}.cls-6{fill:#fff;}.cls-7{fill:#989594;}.cls-8{fill:#f8f8f8;}.cls-9{fill:#999696;}.cls-10{fill:#565151;}.cls-11{fill:#796914;}.cls-12{fill:#42380d;}.cls-13{fill:#cea550;}.cls-14{fill:#f0d30e;}.cls-15{fill:#cab871;}.cls-16{fill:#d2a811;}.cls-17{fill:#a33034;}.cls-18{fill:#e382a2;}.cls-19{fill:#9c0e19;}.cls-20{fill:#ce648d;}.cls-21{fill:#cd6587;}.cls-22{fill:#d8271e;}.cls-23{fill:#ffdd06;}.cls-24{fill:#f8ce00;}.cls-25{fill:#ffda00;}.cls-26{fill:#f6d208;}.cls-27{fill:#d2ad11;}.cls-28{fill:#f9faf7;}.cls-29{fill:#fcfcfc;}.cls-30{fill:#ffe70a;}.cls-31{fill:#b0afad;}.cls-32{fill:#5d2916;}.cls-33{fill:#c39e00;}.cls-34{fill:#e6e1c5;}.cls-35{fill:#5a6782;}.cls-36{fill:#dd271c;}.cls-37{fill:#188d52;}.cls-38{fill:#1e8d57;}.cls-39{fill:#d3c79f;}.cls-40{fill:#1f8b58;}.cls-41{fill:#518644;}.cls-42{fill:#6c6866;}.cls-43{fill:#fed204;}.cls-44{fill:#5d2e15;}.cls-45{fill:#fafafa;}.cls-46{fill:#5d2e16;}.cls-47{fill:#beaf23;}.cls-48{fill:#c4b47c;}.cls-49{fill:#facf03;}.cls-50{fill:#bcae82;}.cls-51{fill:#d7b93d;}.cls-52{fill:#18377b;}.cls-53{fill:#17377c;}.cls-54{fill:#ebe7db;}.cls-55{fill:#d1a910;}.cls-56{fill:#e7e5da;}.cls-57{fill:#c8a725;}.cls-58{fill:#163479;}.cls-59{fill:#dfd8c7;}.cls-60{fill:#e5e0d5;}.cls-61{fill:#cec18e;}.cls-62{fill:#d0c69f;}.cls-63{fill:#f2f0f1;}.cls-64{fill:#f2f3ee;}.cls-65{fill:#e6e6eb;}.cls-66{fill:#e3bd12;}.cls-67{fill:#f0f2ef;}.cls-68{fill:#c77921;}.cls-69{fill:#e6e3d9;}.cls-70{fill:#c7b36d;}.cls-71{fill:#cc8211;}.cls-72{fill:#d8b01e;}.cls-73{fill:#fafcfc;}.cls-74{fill:#dcb625;}.cls-75{fill:#c9a67d;}.cls-76{fill:#d5caa7;}.cls-77{fill:#d1ac13;}.cls-78{fill:#dcd1ba;}.cls-79{fill:#ddb31c;}.cls-80{fill:#cfc08f;}.cls-81{fill:#ebe8dc;}.cls-82{fill:#5a6171;}.cls-83{fill:#c1b589;}.cls-84{fill:#e3dac2;}.cls-85{fill:#e7e4d8;}.cls-86{fill:#d0bf7f;}.cls-87{fill:#d1c287;}.cls-88{fill:#ebe9df;}.cls-89{fill:#e6e2d4;}.cls-90{fill:#ede8d6;}.cls-91{fill:#f1f0ef;}.cls-92{fill:#f1f3f4;}.cls-93{fill:#f0ede0;}.cls-94{fill:#cfc18f;}.cls-95{fill:#f0ede1;}.cls-96{fill:#eceae0;}.cls-97{fill:#a04e13;}.cls-98{fill:#16347a;}.cls-99{fill:#9d631c;}.cls-100{fill:#fdfefd;}.cls-101{fill:#efeee8;}.cls-102{fill:#f7d00a;}.cls-103{fill:#c4c2c1;}.cls-104{fill:#efece0;}.cls-105{fill:#fbfcfa;}.cls-106{fill:#b69b46;}.cls-107{fill:#e5dfd3;}.cls-108{fill:#e5e1db;}.cls-109{fill:#da261c;}.cls-110{fill:#e7e3d3;}.cls-111{fill:#ffdb00;}.cls-112{fill:#dbbc0b;}.cls-113{fill:#aeadab;}.cls-114{fill:#f2f2f1;}.cls-115{fill:#817e7c;}.cls-116{fill:#5f2e16;}.cls-117{fill:#83817f;}.cls-118{fill:#d9251a;}.cls-119{fill:#fcfcfb;}.cls-120{fill:#757271;}.cls-121{fill:#868281;}.cls-122{fill:#e4e4e2;}.cls-123{fill:#5d2816;}.cls-124{fill:#cecdcc;}.cls-125{fill:#5c3215;}.cls-126{fill:#7e7d7c;}.cls-127{fill:#60501c;}.cls-128{fill:#f2f2f2;}.cls-129{fill:#f6cf07;}.cls-130{fill:#092057;}.cls-131{fill:#fbfcfc;}.cls-132{fill:#0b1f4f;}.cls-133{fill:#0c2259;}.cls-134{fill:#feffff;}.cls-135{fill:#0c1e49;}.cls-136{fill:#1b3d8b;}.cls-137{fill:#fffffe;}.cls-138{fill:#0a2463;}.cls-139{fill:#071e53;}.cls-140{fill:#f3f3f3;}.cls-141{fill:#e5e5e4;}.cls-142{fill:#fbfbfa;}.cls-143{fill:#f7f6f6;}.cls-144{fill:#dddcdc;}.cls-145{fill:#fdfdfe;}.cls-146{fill:#f7f7f7;}.cls-147{fill:#fdfdfd;}.cls-148{fill:#ececec;}.cls-149{fill:#ebebeb;}.cls-150{fill:#ecebeb;}.cls-151{fill:#eaeae9;}.cls-152{fill:#ededed;}</style></defs><title>logo-bu</title><path class="cls-1" d="M.12,0H273.88V263.3c-1.23,9.9-3.12,19.87-7.7,28.83-6.56,13.72-18,24.37-30.46,32.78a119.83,119.83,0,0,1-22,11c-22.42,8.78-45,17.24-67.56,25.55-2.73,1.07-5.7,1.74-8.09,3.51h-1.39a25.6,25.6,0,0,0-3.31-1.56q-30.09-11-60-22.5c-11.29-4.43-22.88-8.43-33.19-15-14-9-26.87-21.1-33.48-36.75-4.16-9.14-5.58-19.17-6.55-29.09Z" transform="translate(-0.13 0)"/><path class="cls-2" d="M2,1.79q135.09-.09,270.17,0,0,83.87,0,167.71c-.05,4.91.19,9.83-.2,14.73q-134.9-.21-269.8,0c-.23-3.21-.24-6.44-.2-9.67Q2,88.15,2,1.79Z" transform="translate(-0.13 0)"/><path class="cls-3" d="M64.92,49.24c4.23,1,8,3.59,12.5,3.58a221.1,221.1,0,0,0,27-.87c6.71-.23,13.59-.58,20.08,1.48,4.63,1.29,8.74,3.84,12.85,6.24,6.13-4.56,13.54-7.69,21.25-7.85,10.54-.2,21.11,1.83,31.62.17,4.12-.28,8.43-2.36,12.39-.23a47,47,0,0,1,6.63-2.55c1.87,3.46,4,6.81,5.54,10.41,1.54.06,3.07.11,4.61.15,0,2.72.1,5.44.2,8.16,4.1.24,8.87.31,11.78,3.73,2.23,2,3.22,5.84,6.6,6.31,3,.67,6.08.41,9.1,1a2.51,2.51,0,0,1,.38,3.94c-3.15,4.09-8.95,5.53-13.87,4.53-3.46-.75-5.29-4-8-6-1.92-.93-4.15-.4-6.19-.51.06,16.39-.36,32.79.21,49.16,3.9.07,8.34.16,11.24,3.17,2.24,1.92,3.2,5.13,5.87,6.51,3.41.76,7,.42,10.37,1.32,2.43,1.44.36,4.26-1.19,5.5a14.6,14.6,0,0,1-13.11,2.58c-3.08-.91-4.78-3.84-7.18-5.75-1.94-.83-4.14-.33-6.18-.4,0,2.75.15,5.51-.11,8.25-.75,2.32-3.55,2.42-5.57,2.39-21.09-.06-42.17,0-63.24,0-3.77-.29-6.46,3.09-10.12,3.39-5,1.05-9.91-.62-14.17-3.13-9-.56-18-.12-27-.19,0-.62-.11-1.87-.15-2.51,9.4.07,18.85-.4,28.23.25,3.71,2,7.81,4.11,12.2,3.17,3.62-.4,6.3-3.6,10-3.67,23.11-.11,46.21.18,69.31-.17.1-9.12.37-18.26-.33-27.36-.11-11.35.1-22.71,0-34.08.21-9.35,1.06-18.77.17-28.1l-2.42-.93c.08.83.22,2.46.3,3.28-3-4.1-4.51-9.13-7.88-13l-.25-.28c-2.14.75-4.21,1.66-6.28,2.53,2.06,4.79,4.57,9.66,4.41,15,0,.25-.08.76-.1,1-.53-4.06-3.45-6.81-6.57-9.12.88-2.61,1.8-5.27,1.45-8.07-4.25-.19-8.36,1-12.55,1.31-11,1.31-22.12-.9-33.18-.08a37.91,37.91,0,0,0-18.15,7.77l-.64.56-.1-.86a41.32,41.32,0,0,0-18.23-7.41c-13.41-1.15-26.78,1.5-40.19.82-3.81-.1-7.4-1.51-10.89-2.91l-1.82-.76c-2,3.15-3.89,6.32-5.54,9.64-.28.59-.84,1.73-1.12,2.3-1-.21-2-.39-3-.57l-.56,2.65a45.39,45.39,0,0,0-.64,5.7l-2.33-.06c0,3.3,0,6.6.07,9.9L52,80c-2,2.45-4,6.14-7.77,5.35-4.3-.64-6.25-5-7.06-8.79A58.31,58.31,0,0,1,30.45,76l.45-3.09c2.14,0,4.26-.09,6.4-.17.53-3.76,2.63-7.73,6.55-8.8,3.35-.85,6.29,1.92,7.43,4.84l3.35.09c0-3,.07-6,.19-9,1.48-.07,2.94-.15,4.42-.24C61,56.08,63.16,52.77,64.92,49.24Z" transform="translate(-0.13 0)"/><path class="cls-4" d="M65.51,50.05l1.82.76-1.28-.45c-.07,7.82.13,15.64.1,23.45a36.1,36.1,0,0,0-.43,8.49c.29.32.83,1,1.1,1.26.35,1.72.63,3.46.87,5.2-.53-.86-1.59-2.58-2.14-3.45,1.29,10.13.17,20.38,1.12,30.54-.77-2.18-1.51-4.37-2.12-6.6-.29,1.35-.58,2.72-.88,4.07-.55-12-2.38-24-2.26-36.13A148.87,148.87,0,0,0,60,59.69C61.62,56.37,63.55,53.2,65.51,50.05Z" transform="translate(-0.13 0)"/><path class="cls-5" d="M202.07,52.76c2.07-.87,4.14-1.78,6.28-2.53l.25.28c-.8,6.87-.39,13.8-.17,20.69-.22-.89-.66-2.64-.87-3.52l-1.08.11C206.64,62.42,204.13,57.55,202.07,52.76Z" transform="translate(-0.13 0)"/><path class="cls-6" d="M66.05,50.36l1.28.45c3.49,1.4,7.08,2.81,10.89,2.91,13.41.68,26.78-2,40.19-.82a41.32,41.32,0,0,1,18.23,7.41l.1.86q0,38.53,0,77.09c-5.3-3.89-12-4.09-18.33-3.79-7,.37-14,.15-21,.37-3.45.07-6.67,1.54-10.11,1.78a146.09,146.09,0,0,1-18.48,0,42,42,0,0,1-.61-8.89c-.4.62-.8,1.24-1.2,1.88.06,2.85,2,6.48-.47,8.8-.38-3.2-.46-6.42-1-9.6-1.2,3.83,1.51,8.49-1.17,11.74a52.26,52.26,0,0,1,.4-11.59,52.79,52.79,0,0,0,1-9.8c.25,3.1-.06,6.42,1.61,9.2a51.66,51.66,0,0,0-.71-12.54c-1-10.16.17-20.41-1.12-30.54.55.87,1.61,2.59,2.14,3.45-.24-1.74-.52-3.48-.87-5.2a73.82,73.82,0,0,1-.67-9.75C66.18,66,66,58.18,66.05,50.36Z" transform="translate(-0.13 0)"/><path class="cls-7" d="M208.6,50.51c3.37,3.86,4.86,8.89,7.88,13,.09.32.29,1,.39,1.28.12,27.5,0,55-.06,82.53-1.45-1.16-2.89-2.32-4.37-3.44.86,1.53,1.74,3,2.63,4.54-8.18,0-16.36-.12-24.54.12a28.35,28.35,0,0,1-6.62-.73c2.12-.4,4.27-.63,6.42-.91-7.8.3-15.65,1.31-23.46.22,4-1.23,8.29-.89,12.36-1.93a30.1,30.1,0,0,1,11.58-.46,105.87,105.87,0,0,0,21.87.38c-4.74-2.08-10.07-.53-15.06-1.2,4.31-.18,8.62-.08,12.91-.6-2-1.32-4.53-1-6.83-1.07-7.82-.08-15.58,2.1-23.4.74,9.71-.76,19.42-1.52,29.16-1.73l.68.31-.48-1a67.84,67.84,0,0,0-.46-8.43l-1-.31-.8-.25-.39-.13-1.26-.55-.09-1.4c.12-.48.36-1.43.47-1.91,1.16-6.64,1.11-13.41,2-20.08,1.17-5,.52-10.17.65-15.26-.12-6.4.82-13.07-1.6-19.2-.33-1.39-.62-2.8-.87-4.2,0-.25.08-.76.1-1l1.08-.11c.21.88.65,2.63.87,3.52C208.21,64.31,207.8,57.38,208.6,50.51Z" transform="translate(-0.13 0)"/><path class="cls-6" d="M188.71,52.92c4.19-.35,8.3-1.5,12.55-1.31.35,2.8-.57,5.46-1.45,8.07,3.12,2.31,6,5.06,6.57,9.12.25,1.4.54,2.81.87,4.2,1.35,11.43,1.32,23,.95,34.46-.93,6.67-.88,13.44-2,20.08-1-.72-2-1.46-2.95-2.21l-.16-.43c1.08-1.39,2.64-2.64,2.83-4.5.48-3.06-2-5.35-3.44-7.73l3.26.52c-.17-.88-.52-2.65-.7-3.53.23-1.42.45-2.84.55-4.27-3.23.64-4.14,4.75-5.52,7.35-.16-.88-.47-2.66-.63-3.54,2.42-3,5.13-6,6-9.76-1.09-3.32-3.32-6.06-5.5-8.72l.84-4.87a16.47,16.47,0,0,0,5.17,8.48,13.72,13.72,0,0,0-.55-5c.25-1.35.51-2.69.77-4l-2.66,1c.93-1.92,2.37-3.82,2-6.08,0-1.9-1.65-3.06-2.73-4.37-.34-2-.63-3.9-1-5.86-1.62,2,0,4.73-1.5,6.86l-1-3.3c-.88,1-1.75,2-2.64,3,.67-1.61,2.07-4.56-.65-4.91-2.49-.38-2.18,2.57-2.19,4.22l-1.82.2a6.16,6.16,0,0,0,4.18,4l.24,3.48c2.23-.88,4.43-1.84,6.58-2.89-1-.8-1.89-1.61-2.82-2.44,3.24-.44,4,3.65,1.66,5.28-2.29,2-5.45.55-7.61-.85-1.1.88-2.91,1.64-1.81,3.31L195,87.29a27.55,27.55,0,0,1-4.87,2.55l-1.16-1c2.69-6,4.79-14.13,0-19.68-3.66,5.75-1.29,12.52-.15,18.63l-1.25,1.32a2,2,0,0,0-.65,3,46.36,46.36,0,0,0,3.71,6.64c3.41,1.54,8.06-1.54,10.72,1.61-4,.23-8.35-1.24-12.06,1l-1.86-.85a17.36,17.36,0,0,1-3,5.94c-2.35-1.1-4.66-2.26-7-3.43,1.06,1.62,2.14,3.22,3.2,4.84l-1,.93c1.23,1.39.92,3.16.6,4.81-.75-1.34-1.53-2.69-2.3-4-.47,1.07-.93,2.15-1.38,3.22l-2.59.16-.12,2c-.11,1.18-.23,2.34-.33,3.51-.92,3.62,1.52,8-1.07,11.06-.42-3.71.5-7.5-.35-11.15-2.41-3.27-6.72-1.45-9.46.33.3-.7.9-2.08,1.21-2.78l-3.88.73a8.54,8.54,0,0,0-4.77-.43,16.93,16.93,0,0,0,7.71,5.15l-3.62.84a33.89,33.89,0,0,0-8.78-6.52,44.36,44.36,0,0,0-7.89,5.32c-.72-1.4-.9-4.65-3.23-4l-1.56,2.38,2.64,1a50.13,50.13,0,0,0-.54,9.64c-.35.34-1,1-1.41,1.38,3.5,1,9.41,4,11.22-.88l1.58,1.11c2.72,2.82,6.64,1.43,9.41-.49-.32.63-1,1.87-1.27,2.51l3.52-.21,1.29,1.22c-9,.38-19-1.9-26.88,3.68.6-17.32.12-34.67.27-52-.11-8.56.26-17.11-.24-25.64a37.91,37.91,0,0,1,18.15-7.77C166.59,52,177.67,54.23,188.71,52.92Z" transform="translate(-0.13 0)"/><path class="cls-8" d="M201.92,55c2,2.39,2.59,5.58,3.62,8.44a43.56,43.56,0,0,1-5-4.16Z" transform="translate(-0.13 0)"/><path class="cls-9" d="M58.85,62c.28-.57.84-1.71,1.12-2.3a148.87,148.87,0,0,1,1.44,17.5c-.12,12.09,1.71,24.08,2.26,36.13.3-1.35.59-2.72.88-4.07.61,2.23,1.35,4.42,2.12,6.6a51.66,51.66,0,0,1,.71,12.54c-1.67-2.78-1.36-6.1-1.61-9.2a52.79,52.79,0,0,1-1,9.8l-.82-.73-1.66-1.43c-.24,3.2-.38,6.41-.55,9.61a114.72,114.72,0,0,0-.92-13.36c-.59,6.75-.55,13.52-.5,20.29l1.34.06.34.47.76,1.08c8.57,1,17.07-.91,25.63-.92a10.86,10.86,0,0,0,4.19-.92l1.21-.46c10.06-.19,20,1.52,30.08,1.39.07.2.23.59.3.78l-5.26,1.94c-4.42-.45-8.82.27-13.24.34a40.74,40.74,0,0,0-9.3,0c-.35.43-1,1.3-1.41,1.72-4.53.66-9.11.12-13.66,0-7.58-.47-15.18-.41-22.77-.24,1.05-1.49,2.1-3,3.11-4.49-1.58,1.43-3.12,2.9-4.69,4.34-.42-26.07-.06-52.17-.32-78.24-.18-2.43.79-4.79.62-7.21l-2,1.13.56-2.65C56.83,61.6,57.84,61.78,58.85,62Z" transform="translate(-0.13 0)"/><path class="cls-10" d="M136.74,61.17l.64-.56c.5,8.53.13,17.08.24,25.64-.15,17.32.33,34.67-.27,52,7.9-5.58,17.9-3.3,26.88-3.68l-1.29-1.22c.35-.4,1.06-1.17,1.42-1.56l.45,2.92c3.86.56,7.84.31,11.65,1.26-10.11.88-20.32-1.94-30.42-.22-3.1.57-6.57,1.57-8.14,4.59,1.1-.39,2.18-.83,3.23-1.31l.4,2.14a37.26,37.26,0,0,1,8.58-2l-.61.64c-2.06.61-4.16,1.13-6.24,1.65,1.26,1.19,2.48,2.44,3.75,3.65l1.73,1.22a50.52,50.52,0,0,0,5.9.22c-1.4-.7-2.81-1.35-4.2-2.06,9,2.2,18.06-.84,27.1-.62-4.6.43-9.59.05-13.6,2.8-5.75-1.68-11.48,1.35-17.3.28,3.87,2.47,8.59,1.54,12.92,1.69,8.12-.22,16.3.58,24.35-.78a28.35,28.35,0,0,0,6.62.73c8.18-.24,16.36-.08,24.54-.12-.89-1.51-1.77-3-2.63-4.54,1.48,1.12,2.92,2.28,4.37,3.44,0-27.51.18-55,.06-82.53a15.36,15.36,0,0,1,.83,4.41c-.15,26.71-.07,53.44,0,80.15-17,.2-34-.16-51.07-.05-6.52,0-13,.2-19.56-.18-1.71-2.93-3.36-6.39-6.73-7.68-4.36-1.82-9.71.52-11.68,4.72l-.76.09-2.23-.21a6.81,6.81,0,0,0,4-3.75l1.37.32-2.28-2.49,5,.78c-4.68-4.18-11.45-3-17.21-3.78l-1.31-.38c3.87,0,7.74,0,11.61.18-.12-.46-.34-1.35-.45-1.8-9.92-.22-19.74,1.23-29.64,1.38-.82,0-1.63.09-2.44.19a103.21,103.21,0,0,1-18.91,1.13c-2.79,0-5.7-.49-8.33.75,6.71,1.3,13.75,1.85,20.47.4a38.94,38.94,0,0,1,9.4-.54l.84.61c-3.62.16-7.61-.55-10.86,1.4,4.27.48,8.6.14,12.87.66a61.16,61.16,0,0,0,15.08,1.4c2.85,0,5.7,0,8.55.13l.21.61c-10.8.44-21.47-1.42-32.25-1.64-6.6-1.05-13.31-.72-19.94-1.52-2.11,0-4.94-1-6.2,1.43,9.54.57,19.13,0,28.63,1.18l-1.21.46c-9.2-.36-18.48.18-27.61-1.11l-.63,1.39c4.19.12,8.4,0,12.58.52-5,.38-10,0-14.92,0l-.34-.47L64,141.25a104.26,104.26,0,0,1-.06-13l.82.73a52.26,52.26,0,0,0-.4,11.59c2.68-3.25,0-7.91,1.17-11.74.53,3.18.61,6.4,1,9.6,2.49-2.32.53-5.95.47-8.8.4-.64.8-1.26,1.2-1.88a42,42,0,0,0,.61,8.89,146.09,146.09,0,0,0,18.48,0c3.44-.24,6.66-1.71,10.11-1.78,7-.22,14,0,21-.37,6.29-.3,13-.1,18.33,3.79Q136.81,99.71,136.74,61.17Z" transform="translate(-0.13 0)"/><path class="cls-11" d="M216.18,60.22l2.42.93c.89,9.33,0,18.75-.17,28.1.15,11.37-.06,22.73,0,34.08.7,9.1.43,18.24.33,27.36-23.1.35-46.2.06-69.31.17-3.68.07-6.36,3.27-10,3.67-4.39.94-8.49-1.13-12.2-3.17.43-1.73.84-3.47,1.3-5.21,2-4.2,7.32-6.54,11.68-4.72,3.37,1.29,5,4.75,6.73,7.68,6.52.38,13,.14,19.56.18,17-.11,34,.25,51.07.05,0-26.71-.11-53.44,0-80.15a15.36,15.36,0,0,0-.83-4.41c-.1-.32-.3-1-.39-1.28C216.4,62.68,216.26,61.05,216.18,60.22Z" transform="translate(-0.13 0)"/><path class="cls-12" d="M55.27,64.07l2-1.13c.17,2.42-.8,4.78-.62,7.21.26,26.07-.1,52.17.32,78.24l1.36.91H55.24c-.27-2.73-.41-5.47-.57-8.2a86.38,86.38,0,0,1,0-9.52c.47-11.08.11-22.19.2-33.29-.13-6,.37-12.09-.25-18.12L52,80l.35-.37,2.18-.46c0-3.13,0-6.25.08-9.38A45.39,45.39,0,0,1,55.27,64.07Z" transform="translate(-0.13 0)"/><path class="cls-13" d="M86.08,65.22c3.55-.37,7.1-.76,10.66-1.07-.43,1.36-.86,2.73-1.26,4.11l-.57-.41c-.5-.35-1.51-1-2-1.35l-.72,0-.49,0a9.37,9.37,0,0,0-4.7.86l-.63,1C86.28,67.64,86.15,66,86.08,65.22Z" transform="translate(-0.13 0)"/><path class="cls-14" d="M41.27,66.2C44.16,63,50,65,50.29,69.37c-1.83-.7-3.33-2.18-5.2-2.73-2.16,0-3.21,2.36-4.83,3.44C38.06,69.14,40.34,67.1,41.27,66.2Z" transform="translate(-0.13 0)"/><path class="cls-15" d="M75.7,65.21c3.18,0,6.36.06,9.53.24,0,2,1.69,5.46-1,6.33l0-3.8V65.85c-2.59,0-5.18.09-7.77.23.06.72.17,2.19.23,2.91l-1,1.55-2.23-2.85C74,67.06,75.14,65.83,75.7,65.21Z" transform="translate(-0.13 0)"/><path class="cls-16" d="M76.45,66.08c2.59-.14,5.18-.21,7.77-.23V68L82,67.7l-.63,0-1,0-.66,0-.83,0c-1.5,1,.1,2.61.39,3.82a11.17,11.17,0,0,1,1.4,7.41L77.2,80.58c.09-.77.26-2.34.34-3.12.83-.75,2.42-2.65.64-3.31S75.48,76,76.6,77.26l-1.07,1.32c0-1.46-2.77-2.72-3-.79a2.14,2.14,0,0,0,2.51,1.4c.14.65.41,2,.55,2.6-.46,1.81-1.59,3.09-3.57,3,.47-1.5.93-3,1.4-4.52-2.24,1.54-2.87,4.06-2.94,6.62,1.67-.27,3.35-.54,5-.73-.06.58-.18,1.73-.25,2.3l-3.4.32-1.43-.29c-.2.8-.61,2.42-.82,3.23-2.17-6.65.91-13.08,1.62-19.65-1.1.77-2.19,1.56-3.28,2.34-.14-2.4.31-6,3.36-6.2,1.56-.3,2,1.61,2.81,2.49,1,1.37,2.5,2.16,3.79,3.18-.4-1.65-.92-3.27-1.24-4.94C76.62,68.27,76.51,66.8,76.45,66.08Z" transform="translate(-0.13 0)"/><path class="cls-17" d="M87,67.42a9.37,9.37,0,0,1,4.7-.86l.49,0,.72,0c.51.34,1.52,1,2,1.35l-2,.49c-1.73.16-3.45.26-5.18.31Z" transform="translate(-0.13 0)"/><path class="cls-18" d="M91.68,66.56l.49,0Z" transform="translate(-0.13 0)"/><path class="cls-19" d="M78.8,67.56l.83,0,.66,0,1,0,.63,0,2.27.28,0,3.8L83,73c-.15,1.09-.32,2.2-.48,3.3A38.58,38.58,0,0,0,82,82.09l.18.77c.11.48.33,1.44.45,1.92,0,4,1.64,7.56,2.8,11.26,0,.47,0,1.43.07,1.91q-3.94.09-7.88.1a48.47,48.47,0,0,0,2.49-15.93c.18-1.11.34-2.22.52-3.33a11.17,11.17,0,0,0-1.4-7.41C78.9,70.17,77.3,68.58,78.8,67.56Z" transform="translate(-0.13 0)"/><path class="cls-20" d="M79.63,67.6l.66,0Z" transform="translate(-0.13 0)"/><path class="cls-21" d="M81.32,67.67l.63,0Z" transform="translate(-0.13 0)"/><path class="cls-22" d="M41.47,72.86c0-2.35,1-5.63,3.91-5.4,2.55.48,2,3.4,2.24,5.27C45.57,72.8,43.51,72.84,41.47,72.86Z" transform="translate(-0.13 0)"/><path class="cls-19" d="M86.35,68.44l.63-1,.7,1.23a74.73,74.73,0,0,1,3.15,6.79,59.4,59.4,0,0,1,2-7.1l2-.49-.26.44a16.26,16.26,0,0,0-2.86,9.37A38,38,0,0,0,92,84c.82,4.53,3,8.72,3.46,13.33a61.38,61.38,0,0,1-7.9.49l0-.57A70.41,70.41,0,0,1,89,86.5c-.33-.36-1-1.09-1.35-1.45l2-1.48.1-1.32v-.81c0-.4,0-1.19,0-1.59l-.07-1-.16-2c-.62-.43-1.23-.88-1.84-1.34.31-.44.9-1.33,1.19-1.77C87.66,72.15,86.15,70.58,86.35,68.44Z" transform="translate(-0.13 0)"/><path class="cls-23" d="M87.68,68.65c1.73-.05,3.45-.15,5.18-.31a59.4,59.4,0,0,0-2,7.1A74.73,74.73,0,0,0,87.68,68.65Z" transform="translate(-0.13 0)"/><path class="cls-12" d="M97.74,68.47c2.42,1.39-.15,4.49,0,6.61a5.86,5.86,0,0,1-3-2.2l3,.33-.65-1.72L95.31,72Q96.53,70.21,97.74,68.47Z" transform="translate(-0.13 0)"/><path class="cls-23" d="M79.41,69.23l4.06.26L81.2,73.43C80.61,72,80,70.63,79.41,69.23Z" transform="translate(-0.13 0)"/><path class="cls-24" d="M91.79,77.66a16.26,16.26,0,0,1,2.86-9.37C95.51,71,94,73.35,93.5,75.9c-.16.89-.47,2.67-.63,3.55l2.22-2c0,.58.11,1.77.15,2.36l1.72.57c1.56.6,1.63,1.44.23,2.54l-2.6-.1C93.71,81.06,92.77,79.35,91.79,77.66Z" transform="translate(-0.13 0)"/><path class="cls-10" d="M100.91,72.61c.41-1.33.69-3.33,2.4-3.55,1.47,1.69,1.62,4,1.81,6.13-2.48-.38-1.27-3.58-2.05-5.19-2.44,4.49-.09,9.71-.59,14.51A20.43,20.43,0,0,1,100.91,72.61Z" transform="translate(-0.13 0)"/><path class="cls-1" d="M107.67,69.32l.79-.1c.15,1.16.3,2.32.47,3.48a10.43,10.43,0,0,1,2.79-3.92c.37,2.06-1.32,3.12-2.69,4.23,0,.81,0,2.45,0,3.27a14.42,14.42,0,0,1,3.15,10.82l-1.07,1c-.53-3.69.67-8.24-2.55-11,0,3.36.08,6.73.07,10.09h-1C107.69,81.26,107.78,75.29,107.67,69.32Z" transform="translate(-0.13 0)"/><path class="cls-1" d="M115.1,84.59c-.78-5-2.33-10.72.9-15.22.71,1.17,1.85,2.2,2,3.62.79,5.19.4,10.74-2.29,15.36l.32-3.91Z" transform="translate(-0.13 0)"/><path class="cls-10" d="M163.87,69.3c2.67-.18,3.78,4.58,1.66,5.92-.49-1.7.17-4.07-1.64-5.1-.36,4.37-1,9.38,1.25,13.31.1-.84.31-2.52.41-3.36l1.32,0A16.26,16.26,0,0,1,164,87.87C163.41,81.78,160.56,75,163.87,69.3Z" transform="translate(-0.13 0)"/><path class="cls-1" d="M168.85,69.48l3.44.17c-.24,6,.15,12,0,18-.34-3.42-.42-6.9-1.44-10.21a42.31,42.31,0,0,0,.22-7.55L168.93,72C168.91,71.14,168.89,70.31,168.85,69.48Z" transform="translate(-0.13 0)"/><path class="cls-1" d="M176.48,69.53c3.54,4.22,2.78,10.69,1,15.52a25.47,25.47,0,0,1-1.14,3.21C175.72,82.11,172.28,75.16,176.48,69.53Z" transform="translate(-0.13 0)"/><path class="cls-10" d="M180.79,70.1c1.3-.41,2.72-.11,4.07-.13-.35,3.19-2.09,6-2.47,9.16l-.36.44c-.61,3.21.07,6.48.13,9.71-2.23-.84-1.26-3.33-1.51-5.08C180.77,79.5,180.48,74.79,180.79,70.1Z" transform="translate(-0.13 0)"/><path class="cls-10" d="M189,69.12c4.8,5.55,2.7,13.65,0,19.68l-1.41.27,1.25-1.32C187.66,81.64,185.29,74.87,189,69.12Z" transform="translate(-0.13 0)"/><path class="cls-11" d="M219.54,68.84c3.32-.19,6.85.07,9.7,2s3.87,5.32,6.56,7.24c3.56,1.68,7.89.39,11.41,2.11.92,1.52-.91,2.69-1.75,3.69-3.17,2.81-7.69,3.53-11.76,2.75-3.18-.84-5-3.78-7.46-5.75-2.1-.9-4.49-.71-6.72-.91C219.38,76.24,219.41,72.54,219.54,68.84Z" transform="translate(-0.13 0)"/><path class="cls-23" d="M38.53,70.7c1.18-1.28,3.48.71,2.11,2S37.1,72,38.53,70.7Z" transform="translate(-0.13 0)"/><path class="cls-25" d="M48.07,69.73l3,.14c-.11,3.21-.11,6.41,0,9.62l-3,.1C48,76.3,48,73,48.07,69.73Z" transform="translate(-0.13 0)"/><path class="cls-26" d="M52.3,69.71l2.33.06c-.09,3.13-.06,6.25-.08,9.38l-2.18.46C52.32,76.31,52.32,73,52.3,69.71Z" transform="translate(-0.13 0)"/><path class="cls-1" d="M121.06,74.18c.06-1.37-.27-2.93.77-4,.6,2.3-.67,5.74,1.94,7,.36-2.26-.74-5,.84-7,.28,5,0,10.06.16,15.08-.11,1.46.38,3.21-.85,4.34-.94-4.37,1.58-9.83-1.8-13.3-.17,4.41.1,8.84-.16,13.26a2.42,2.42,0,0,1-.89-2.24C121,82.94,121.13,78.56,121.06,74.18Z" transform="translate(-0.13 0)"/><path class="cls-27" d="M200.35,76.84c1.5-2.13-.12-4.84,1.5-6.86.33,2,.62,3.91,1,5.86,1.08,1.31,2.76,2.47,2.73,4.37.33,2.26-1.11,4.16-2,6.08l2.66-1c-.26,1.35-.52,2.69-.77,4a13.72,13.72,0,0,1,.55,5,16.47,16.47,0,0,1-5.17-8.48l-.84,4.87c2.18,2.66,4.41,5.4,5.5,8.72-.9,3.8-3.61,6.81-6,9.76.16.88.47,2.66.63,3.54,1.38-2.6,2.29-6.71,5.52-7.35-.1,1.43-.32,2.85-.55,4.27.18.88.53,2.65.7,3.53l-3.26-.52c1.47,2.38,3.92,4.67,3.44,7.73-.19,1.86-1.75,3.11-2.83,4.5l.16.43.45,1.2a22.25,22.25,0,0,0-3-.33c-.75-1.07-1.79-3.3-3.38-2.57-.6,1.76,1.69,2.74,2.84,3.6a14.59,14.59,0,0,0-.5,3.23l-1.52-1.26c-.95,1-1.89,2-2.88,2.94-3.11,1.91-6.26-1.08-9.27-1.85q.32,1.67.66,3.33a29,29,0,0,0-8.58,0,64.07,64.07,0,0,1,5.63-5c.93,1.16,3.59,1.68,4-.18-.49-1.65-2.63-.44-3.79-.37l-2.24-.05a42.84,42.84,0,0,1-8.93,6,38.77,38.77,0,0,1-8.73-6.54l-3.68.91a22.19,22.19,0,0,1,7.53,4.38l-3,1.95-.45-2.92c-.36.39-1.07,1.16-1.42,1.56l-3.52.21c.31-.64,1-1.88,1.27-2.51-2.77,1.92-6.69,3.31-9.41.49-.05-3.8.16-7.6.15-11.4l2.37.83c-.55,1.9,1.78,3.81,3.11,1.91a9.79,9.79,0,0,0-2.92-2.63c-.9-.66-1.8-1.3-2.71-1.92l-1.63-.06a35.86,35.86,0,0,0-4.16,2.78,3.61,3.61,0,0,0-1.79,2.58l2.56-.32.4-.79c.69-.93,2.2-3.37,3.25-1.3a14.33,14.33,0,0,0-.36,5q.1,2.09.15,4.2c-1.81,4.93-7.72,1.89-11.22.88.36-.34,1.06-1,1.41-1.38a50.13,50.13,0,0,1,.54-9.64l-2.64-1,1.56-2.38c2.33-.68,2.51,2.57,3.23,4a44.36,44.36,0,0,1,7.89-5.32,33.89,33.89,0,0,1,8.78,6.52l3.62-.84a16.93,16.93,0,0,1-7.71-5.15,8.54,8.54,0,0,1,4.77.43l3.88-.73c-.31.7-.91,2.08-1.21,2.78,2.74-1.78,7.05-3.6,9.46-.33.85,3.65-.07,7.44.35,11.15,2.59-3,.15-7.44,1.07-11.06,2.23-2.41,5.68-2.22,8.46-.92l1.09,1.85,1.23-3.24c1.87.51,1.52,2.65.65,3.9l-.8,1.4-.12.41,3.19.26.4-2.07c.29-1.51.59-3,.88-4.5l2.39-1,3.18-1.15c0-.78-.13-2.36-.18-3.14a27.65,27.65,0,0,1-5.87,4.44c-.32-.53-1-1.6-1.29-2.13-1,.86-1.94,1.71-2.86,2.62l-.6.67c-1-.5-2.09-1-3.14-1.46l.11-.79c.32-1.65.63-3.42-.6-4.81l1-.93c-1.06-1.62-2.14-3.22-3.2-4.84,2.32,1.17,4.63,2.33,7,3.43a17.36,17.36,0,0,0,3-5.94l1.86.85c3.71-2.21,8-.74,12.06-1-2.66-3.15-7.31-.07-10.72-1.61a46.36,46.36,0,0,1-3.71-6.64,2,2,0,0,1,.65-3L189,88.8l1.16,1A27.55,27.55,0,0,0,195,87.29L192.51,86c-1.1-1.67.71-2.43,1.81-3.31,2.16,1.4,5.32,2.9,7.61.85,2.3-1.63,1.58-5.72-1.66-5.28.93.83,1.87,1.64,2.82,2.44-2.15,1-4.35,2-6.58,2.89l-.24-3.48a6.16,6.16,0,0,1-4.18-4l1.82-.2c0-1.65-.3-4.6,2.19-4.22,2.72.35,1.32,3.3.65,4.91.89-1,1.76-2,2.64-3Z" transform="translate(-0.13 0)"/><path class="cls-5" d="M115.49,70.45c1.84.38,1.46,2.4,1.69,3.74a83.21,83.21,0,0,1-.28,9.86l-1.22,0A49,49,0,0,1,115.49,70.45Z" transform="translate(-0.13 0)"/><path class="cls-10" d="M151,70.58c.63,1.5,1.3,3,1.92,4.47-.49,1.23-1.8,2.59-.88,4,1.46,3.24,2.85,6.63,2.57,10.27-1.1.89-2.75.17-4.07.29.12-4.57.14-9.14-.06-13.69l-1.85-.75C150.59,74.4,150.66,72.37,151,70.58Z" transform="translate(-0.13 0)"/><path class="cls-28" d="M182,74.87c-.59-1.25-.65-3.27.56-4.17C184,71.33,183.29,74.56,182,74.87Z" transform="translate(-0.13 0)"/><path class="cls-5" d="M188.75,83.88c.14-4.39-1.51-9.33.8-13.36.93,4.44.57,9,.16,13.44Z" transform="translate(-0.13 0)"/><path class="cls-27" d="M82.5,76.32c3.09-.08,1.74-3.49,3.86-4.77a4.71,4.71,0,0,0,1.3,4c.61.46,1.22.91,1.84,1.34l.16,2c-1.11-.8-2.24-1.57-3.36-2.34l-3.18,2.28c.53.81,1.08,1.62,1.62,2.43L82,82.09A38.58,38.58,0,0,1,82.5,76.32Z" transform="translate(-0.13 0)"/><path class="cls-10" d="M127.35,78.16c.08-2.12-.35-4.45.88-6.33.26,2.36.29,4.75.49,7.14,2.13-1.86.18-5.4,2.44-6.92q.3,9.69,0,19.4A1.84,1.84,0,0,1,130,89.34c-.08-3.45.07-6.92,0-10.38l-1.43.82c-.84,3.84,1,8.33-1.07,11.78C127.21,87.1,127.45,82.63,127.35,78.16Z" transform="translate(-0.13 0)"/><path class="cls-1" d="M143.68,72.46c1.26,0,2.53,0,3.79,0-.31,1.52-.61,3-.9,4.57-.44-1.34-.14-3.42-1.84-3.87-1,2.65-.18,5.44.25,8.09-.47,3-1,6-.27,9h2c.39-2.77-.65-5.47-.95-8.17,2,2.42,1.81,5.73,2.46,8.64l-4.51.34C143.72,84.89,143.52,78.68,143.68,72.46Z" transform="translate(-0.13 0)"/><path class="cls-29" d="M176.09,84c-.3-4.6-1.78-9.52.57-13.85,2,4.4.85,9.27.66,13.88Z" transform="translate(-0.13 0)"/><path class="cls-1" d="M207.25,73c2.42,6.13,1.48,12.8,1.6,19.2-.13,5.09.52,10.25-.65,15.26C208.57,96,208.6,84.43,207.25,73Z" transform="translate(-0.13 0)"/><path class="cls-30" d="M30.84,73.87c5.58-.23,11.17-.15,16.77-.06l-.5,1.62a132.13,132.13,0,0,1-15.67-.07Z" transform="translate(-0.13 0)"/><path class="cls-1" d="M65.72,82.3a36.1,36.1,0,0,1,.43-8.49,73.82,73.82,0,0,0,.67,9.75C66.55,83.25,66,82.62,65.72,82.3Z" transform="translate(-0.13 0)"/><path class="cls-31" d="M76.6,77.26c-1.12-1.23-.29-3.65,1.58-3.11s.19,2.56-.64,3.31Z" transform="translate(-0.13 0)"/><path class="cls-32" d="M226,74.21c2-.75,2.82,2.64.78,3C225,77.6,224.2,74.69,226,74.21Z" transform="translate(-0.13 0)"/><path class="cls-33" d="M69.41,75.15Z" transform="translate(-0.13 0)"/><path class="cls-34" d="M74.55,75.33Z" transform="translate(-0.13 0)"/><path class="cls-35" d="M98.52,75.23Z" transform="translate(-0.13 0)"/><path class="cls-23" d="M39.66,79.21c-3.08-.87-.91-3.75,1.44-2.69-.23.88-.46,1.77-.7,2.66A18.19,18.19,0,0,0,44,82.58c2.59.81,4.05-2.81,6.72-2.24-1.42,2.19-3.53,4.94-6.53,4.25C41.89,83.89,39,82,39.66,79.21Z" transform="translate(-0.13 0)"/><path class="cls-36" d="M41.83,76.32c1.81.06,3.63.12,5.45.16.16,1.94.68,4.86-2,5.35C42.46,82.05,41.21,78.71,41.83,76.32Z" transform="translate(-0.13 0)"/><path class="cls-37" d="M83.12,78.77l3.18-2.28c1.12.77,2.25,1.54,3.36,2.34l.07,1q-2.17-.12-4.35-.27c.06.71.11,1.41.16,2.11a4.11,4.11,0,0,1,4.24-.25v.81c-1.23.57-2.47,1.15-3.7,1.74-1.31-.37-2.64-.73-4-1.13L82,82.09l2.78-.89C84.2,80.39,83.65,79.58,83.12,78.77Z" transform="translate(-0.13 0)"/><path class="cls-38" d="M93.5,75.9c1.65-.87,3.11,0,4.37,1.09-.22.84-.68,2.54-.91,3.38l-1.72-.57c0-.59-.11-1.78-.15-2.36l-2.22,2C93,78.57,93.34,76.79,93.5,75.9Z" transform="translate(-0.13 0)"/><path class="cls-39" d="M72.54,77.79c.22-1.93,3-.67,3,.79l-.48.61A2.14,2.14,0,0,1,72.54,77.79Z" transform="translate(-0.13 0)"/><path class="cls-40" d="M76.6,77.26l.94.2c-.08.78-.25,2.35-.34,3.12l3.39-1.79c-.18,1.11-.34,2.22-.52,3.33L77.38,83,75.6,81.79c-.14-.65-.41-2-.55-2.6l.48-.61Z" transform="translate(-0.13 0)"/><path class="cls-41" d="M92,84a38,38,0,0,1-.17-6.31c1,1.69,1.92,3.4,2.8,5.15l2.6.1h.56c-1.81.35-2.89,1.8-4,3.09Z" transform="translate(-0.13 0)"/><path class="cls-42" d="M167.69,88.25c.42-3.73.4-7.92,3.13-10.85,1,3.31,1.1,6.79,1.44,10.21l.07.84c-3.06-1.06-.91-5.34-1.36-7.76l-1.24-.09c-.1,2.41,0,4.84-.36,7.24Z" transform="translate(-0.13 0)"/><path class="cls-43" d="M85.38,79.58q2.18.15,4.35.27c0,.4,0,1.19,0,1.59a4.11,4.11,0,0,0-4.24.25C85.49,81,85.44,80.29,85.38,79.58Z" transform="translate(-0.13 0)"/><path class="cls-44" d="M232.1,79.41l2.64,0c.08.74.23,2.24.31,3l-3-.26Z" transform="translate(-0.13 0)"/><path class="cls-3" d="M54.66,80.18c.62,6,.12,12.08.25,18.12-.09,11.1.27,22.21-.2,33.29l-2.31-.17c0,3.27,0,6.54,0,9.81l2.29-.12c.16,2.73.3,5.47.57,8.2l.16,1.3c9,.53,18,0,27,.26,4.48.08,9-.08,13.46.16-.06.65-.18,1.93-.23,2.57-12.13-.07-24.25,0-36.36,0A4.18,4.18,0,0,1,54.79,151c-.29-3-.09-6.05-.16-9.08l-3.31.25c-1.14,2.78-3.71,5.41-7,4.8-4.32-.58-6.43-5-7.21-8.83-2.16-.11-4.33-.21-6.49-.3l0-3,6.56-.3c.78-4,3.19-9.19,8.08-8.82,3.06-.42,4.92,2.41,6.07,4.79l3.31.3C54.7,113.93,54.63,97.06,54.66,80.18Z" transform="translate(-0.13 0)"/><path class="cls-1" d="M104,80.33l1.23.11c-.74,2.51-1.36,5.11-2.85,7.31C102.05,85.11,103.9,82.93,104,80.33Z" transform="translate(-0.13 0)"/><path class="cls-45" d="M70.49,86.94c.07-2.56.7-5.08,2.94-6.62-.47,1.51-.93,3-1.4,4.52,2,0,3.11-1.24,3.57-3L77.38,83l1.14,1.39-2.27-.25c-.18.52-.55,1.54-.73,2.06C73.84,86.4,72.16,86.67,70.49,86.94Z" transform="translate(-0.13 0)"/><path class="cls-10" d="M183.78,81.34c1.88,1.36,1.24,4.8,1.81,7l-2.75.67C184.39,86.63,183.35,83.91,183.78,81.34Z" transform="translate(-0.13 0)"/><path class="cls-46" d="M239.8,81.23c1.7-1.18,4,.86,2.38,2.42C240.84,85.61,238.43,82.82,239.8,81.23Z" transform="translate(-0.13 0)"/><path class="cls-43" d="M77.38,83l2.69-.89a48.47,48.47,0,0,1-2.49,15.93q3.93,0,7.88-.1l0,1.28c-3.1.27-6.22.19-9.33.2l-1.32.72,1.29,1.28c.54.31,1.61.93,2.14,1.25,1.55,1.16,3.5,1,5.32,1l-.37.33-1.61,1.4.79,2.29c-1.07-.63-2.15-1.27-3.24-1.86l-.75-.39a17.28,17.28,0,0,1-5-3.48,60.38,60.38,0,0,1-3.43-7.11c-.07-.77-.22-2.33-.3-3.1.21-.81.62-2.43.82-3.23l1.43.29A31.43,31.43,0,0,0,73,94l1.42-2.24a18,18,0,0,0,1.79,2.93c-1.9-.08-2.53,2.07-2,3.58A6.31,6.31,0,0,0,76.66,95a5,5,0,0,0,.77-2.75l0-2.83c.54-.34,1.62-1,2.16-1.3-.31-1.26-.61-2.54-1-3.76Z" transform="translate(-0.13 0)"/><path class="cls-47" d="M86.09,84c1.23-.59,2.47-1.17,3.7-1.74l-.1,1.32-2,1.48-1.14.77-.61.19q-1.67-.58-3.3-1.23c-.12-.48-.34-1.44-.45-1.92C83.45,83.26,84.78,83.62,86.09,84Z" transform="translate(-0.13 0)"/><path class="cls-28" d="M151.81,81.77c1.64,1.9,1.47,4.57,1.74,6.9C150,89.76,152.18,83.77,151.81,81.77Z" transform="translate(-0.13 0)"/><path class="cls-48" d="M76.25,84.15l2.27.25c.42,1.22.72,2.5,1,3.76-.54.32-1.62,1-2.16,1.3l0-1.55c-1.58,1.13-3.15,2.27-4.68,3.46l1.76.37L73,94a31.43,31.43,0,0,1-1.16-5.15l3.4-.32c.07-.57.19-1.72.25-2.3S76.07,84.67,76.25,84.15Z" transform="translate(-0.13 0)"/><path class="cls-49" d="M90.61,83.7c1.21,4,2.59,8,3.54,12.08-1.75,0-3.51,0-5.25-.06C89.61,91.74,90.12,87.72,90.61,83.7Z" transform="translate(-0.13 0)"/><path class="cls-24" d="M92,84l1.75,2c.57.76,1.1,1.54,1.6,2.35a17.17,17.17,0,0,0,1.63,8.07l.14.81c0,.54,0,1.62,0,2.16l-.6-.05a25.69,25.69,0,0,0-7.58.17l-.47.07c-.42,1.22-1.31,2.86,0,3.88l-1,.12c-2.05-.68-4.06-1.66-6.27-1.56l2.48-1,.94,0H85l.27-.19a4.5,4.5,0,0,0,2.28-3,61.38,61.38,0,0,0,7.9-.49C94.93,92.69,92.78,88.5,92,84Z" transform="translate(-0.13 0)"/><path class="cls-50" d="M96.77,83.44c4-.56,4,3.65,3.76,6.32L99,89.66c-1.67-.75-.48-2.19-.15-3.4l-1.6-2.2Z" transform="translate(-0.13 0)"/><path class="cls-28" d="M82.59,84.78q1.64.64,3.3,1.23c-.21.85-.63,2.56-.85,3.41.08.45.24,1.31.31,1.74l1.17-1c.86-1.34.29-3,0-4.37l1.14-.77c.35.36,1,1.09,1.35,1.45a70.41,70.41,0,0,0-1.42,10.72L85.39,96C84.23,92.34,82.57,88.74,82.59,84.78Z" transform="translate(-0.13 0)"/><path class="cls-51" d="M95.31,88.36a19.52,19.52,0,0,1,1.93-4.3l1.6,2.2c-.33,1.21-1.52,2.65.15,3.4.92.86,1.81,1.76,2.67,2.68l-3.25-1.09-.9,2.62,3.79,1.32c.07-.58.22-1.74.3-2.33,1.32,2-.22,4-1,5.77.19,1.54.84,3.31-.37,4.63-1.21,1.72-2.71-.1-3.78-.84-.13.44-.4,1.32-.53,1.77A21.86,21.86,0,0,1,92.68,101c2.17,1.37,1.89-2.15-.16-.86L89.4,100l-.53-.49a25.69,25.69,0,0,1,7.58-.17l.12.52.47,0v-.5c0-.54,0-1.62,0-2.16l2.28.69c1-1.91-1.34-3.84-2.42-1.5A17.17,17.17,0,0,1,95.31,88.36Z" transform="translate(-0.13 0)"/><path class="cls-52" d="M85.89,86l.61-.19c.31,1.4.88,3,0,4.37L85,89.42C85.26,88.57,85.68,86.86,85.89,86Z" transform="translate(-0.13 0)"/><path class="cls-53" d="M196.74,86.5c1.42-1.21,3.31,1.21,1.7,2.22C197,89.9,195.18,87.54,196.74,86.5Z" transform="translate(-0.13 0)"/><path class="cls-54" d="M72.69,91.37c1.53-1.19,3.1-2.33,4.68-3.46l0,1.55,0,2.83c-.75-1-2-.73-3-.55Z" transform="translate(-0.13 0)"/><path class="cls-10" d="M67.06,88.12a61.8,61.8,0,0,1,2.86,6.75A60.38,60.38,0,0,0,73.35,102c1.34,2.19,3,4.21,4,6.61-.8-.7-2.37-2.11-3.15-2.81,2.84,7,5.93,13.88,8.65,20.92,2.18-2.66,4.85-4.82,7.2-7.3l1.24.93.21.36-3.35,2.24c-.52,1.74-1,3.51-1.64,5.22.25-1.56.43-3.13.54-4.7-1.06,1.25-2.08,2.54-3.12,3.82a7.76,7.76,0,0,0,5.79,7.45c0-.72,0-2.17.07-2.89.21.7.43,1.41.65,2.11l.7.45,1.43.93c-3.14.26-6.89-.32-8.37-3.5C79.81,122,75.84,112,71.62,102.15,69.78,97.6,67.53,93.09,67.06,88.12Z" transform="translate(-0.13 0)"/><path class="cls-55" d="M85,89.42l1.48.77-1.17,1C85.28,90.73,85.12,89.87,85,89.42Z" transform="translate(-0.13 0)"/><path class="cls-23" d="M80.75,89.81c2,1.37,2.33,3.93,3.3,6-1.58.14-3.15.26-4.74.37C79.74,94,80.21,91.91,80.75,89.81Z" transform="translate(-0.13 0)"/><path class="cls-56" d="M96.35,90.41C99.66,90.7,94.7,93.37,96.35,90.41Z" transform="translate(-0.13 0)"/><path class="cls-45" d="M191,95.18c-.33-3.76,4.49-5.44,7.25-3.54,1.8,2.55,3.9,5,5,8a19.22,19.22,0,0,1-6.55,8.62,5,5,0,0,1-6-3.61c2.24.82,4.43,1.78,6.7,2.54a16.62,16.62,0,0,0,.8-3.36c2.1-.5,4.27-2,3.79-4.52.29-2.29-2-3.25-3.8-3.75a19.07,19.07,0,0,0-.7-3.08,3.17,3.17,0,0,0-2.64.88c-1.29.12-3.06.12-3.13,1.85l1.74.61c0,.38,0,1.16,0,1.55C192.41,96.86,190.8,96.67,191,95.18Z" transform="translate(-0.13 0)"/><path class="cls-57" d="M74.45,91.74c1-.18,2.23-.42,3,.55A5,5,0,0,1,76.66,95l-.42-.37A18,18,0,0,1,74.45,91.74Z" transform="translate(-0.13 0)"/><path class="cls-24" d="M98.41,91.25l3.25,1.09-.06.52c-.08.59-.23,1.75-.3,2.33l-3.79-1.32Z" transform="translate(-0.13 0)"/><path class="cls-58" d="M85.55,92.3Z" transform="translate(-0.13 0)"/><path class="cls-59" d="M74.25,98.25c-.54-1.51.09-3.66,2-3.58l.42.37A6.31,6.31,0,0,1,74.25,98.25Z" transform="translate(-0.13 0)"/><path class="cls-60" d="M96.94,96.43c1.08-2.34,3.39-.41,2.42,1.5l-2.28-.69Z" transform="translate(-0.13 0)"/><path class="cls-61" d="M85.39,96l2.18,1.18,0,.57a4.5,4.5,0,0,1-2.28,3l-.35.1-.34.09-.94,0c-1.93-1-5.24-1.43-5.4,1.62-.53-.32-1.6-.94-2.14-1.25,1.2-.55,1.21-1.22,0-2,3.11,0,6.23.07,9.33-.2l0-1.28C85.44,97.47,85.41,96.51,85.39,96Z" transform="translate(-0.13 0)"/><path class="cls-45" d="M74.78,100.15l1.32-.72c1.18.78,1.17,1.45,0,2Z" transform="translate(-0.13 0)"/><path class="cls-62" d="M88.4,99.59l.47-.07.53.49c-.11.85-.33,2.53-.43,3.37l-.6.09C87.09,102.45,88,100.81,88.4,99.59Z" transform="translate(-0.13 0)"/><path class="cls-63" d="M96.45,99.35l.6.05v.5l-.47,0Z" transform="translate(-0.13 0)"/><path class="cls-64" d="M78.21,102.68c.16-3.05,3.47-2.67,5.4-1.62l-2.48,1Z" transform="translate(-0.13 0)"/><path class="cls-65" d="M84.89,100.94l.35-.1L85,101h-.42Z" transform="translate(-0.13 0)"/><path class="cls-66" d="M89.4,100l3.12.14.16.86A21.86,21.86,0,0,0,96,104.19a7.36,7.36,0,0,0,4.48.84,4.11,4.11,0,0,1-2.33,3.47c-1.35-1.09-2.77-2.08-4.21-3l-.87-2.2c-1.35,0-2.71.06-4,.13C89.07,102.54,89.29,100.86,89.4,100Z" transform="translate(-0.13 0)"/><path class="cls-67" d="M92.52,100.15c2-1.29,2.33,2.23.16.86Z" transform="translate(-0.13 0)"/><path class="cls-5" d="M73.35,102a17.28,17.28,0,0,0,5,3.48c.1.54.31,1.63.41,2.17l.66,1.33-2.12-.37C76.32,106.19,74.69,104.17,73.35,102Z" transform="translate(-0.13 0)"/><path class="cls-68" d="M78.21,102.68l2.92-.65c2.21-.1,4.22.88,6.27,1.56l1-.12.6-.09c1.34-.07,2.7-.11,4-.13l.87,2.2c1.44,1,2.86,2,4.21,3A16,16,0,0,1,97,112.83l-.48,1.4-1-2-5.24.18c-.59-.64-1.16-1.3-1.71-2l-.29-.82c1.46-1.54,2.94-3.08,4.48-4.56l-3,.43-2.21.3c-2,2.34-2.33,5.43-2.88,8.31-.81-.63-1.62-1.24-2.45-1.83l1.8-1.56.12-.49.64-2.78c1-1.33,1.14-4.15-1.22-3.79C81.71,103.73,79.76,103.84,78.21,102.68Z" transform="translate(-0.13 0)"/><path class="cls-69" d="M191.88,102.53C194.91,101,192.05,105.86,191.88,102.53Z" transform="translate(-0.13 0)"/><path class="cls-70" d="M83.53,103.69c2.36-.36,2.17,2.46,1.22,3.79A16.69,16.69,0,0,1,83.16,104Z" transform="translate(-0.13 0)"/><path class="cls-71" d="M81.55,105.42l1.61-1.4a16.69,16.69,0,0,0,1.59,3.46,17,17,0,0,0-4.14,2.09l-.69.39-.5-1-.66-1.33c.08-.44.25-1.33.34-1.78,1.09.59,2.17,1.23,3.24,1.86Z" transform="translate(-0.13 0)"/><path class="cls-19" d="M78.35,105.46l.75.39c-.09.45-.26,1.34-.34,1.78C78.66,107.09,78.45,106,78.35,105.46Z" transform="translate(-0.13 0)"/><path class="cls-72" d="M87.52,105.83l2.21-.3c-.75,1.24-2.52,2.53-1.5,4.13l.29.82a27.36,27.36,0,0,1-.79,3.7l3.45-.09c-1.23,1-2.49,2-3.78,3-.94-1-1.85-2-2.76-3C85.19,111.26,85.57,108.17,87.52,105.83Z" transform="translate(-0.13 0)"/><path class="cls-73" d="M89.73,105.53l3-.43c-1.54,1.48-3,3-4.48,4.56C87.21,108.06,89,106.77,89.73,105.53Z" transform="translate(-0.13 0)"/><path class="cls-5" d="M74.15,105.78c.78.7,2.35,2.11,3.15,2.81,3.32,4.25,7.63,7.53,11.56,11.18l.79-1c-.56-.41-1.68-1.22-2.25-1.62,1.29-1,2.55-2,3.78-3l-3.45.09a27.36,27.36,0,0,0,.79-3.7c.55.66,1.12,1.32,1.71,2l2.09,1.44-.44,2.53,1.25,1.74c-.64.72-1.27,1.45-1.89,2.18L90,119.4c-2.35,2.48-5,4.64-7.2,7.3C80.08,119.66,77,112.77,74.15,105.78Z" transform="translate(-0.13 0)"/><path class="cls-74" d="M80.61,109.57a17,17,0,0,1,4.14-2.09l-.64,2.78A8.74,8.74,0,0,1,80.61,109.57Z" transform="translate(-0.13 0)"/><path class="cls-75" d="M93.52,109.74c.32-.91,1.16-2.63,2.36-2.12,1,1.43-.64,4.22-2.37,3.59C93.51,110.84,93.52,110.11,93.52,109.74Z" transform="translate(-0.13 0)"/><path class="cls-76" d="M182.71,107.23c1-1.1,3.28.27,2.45,1.64C184.21,110,181.89,108.58,182.71,107.23Z" transform="translate(-0.13 0)"/><path class="cls-10" d="M77.3,108.59l2.12.37.5,1,.13.42a11.23,11.23,0,0,0,2.14,1.93c.83.59,1.64,1.2,2.45,1.83.91,1,1.82,2,2.76,3,.57.4,1.69,1.21,2.25,1.62l-.79,1C84.93,116.12,80.62,112.84,77.3,108.59Z" transform="translate(-0.13 0)"/><path class="cls-77" d="M101.28,108c2.65,1.3.18,4.26.26,6.35,2.35-.73,2.24-3.44,3.34-5.21.33,1.37.63,2.76.93,4.13-1.49,1.39-1.65,2.6.56,3.33l-1.48.13-3.19.35a9,9,0,0,0-5-2.19c1.49,1.56,3.9,2.39,4.78,4.43.26,2.91-.14,5.85.15,8.78-.5.7-1,1.39-1.53,2.08-.75-1.4-1.47-2.8-2.18-4.21H94.59c-1.14-1.72-2-3.58-3.14-5.31l-.21-.36c.62-.73,1.25-1.46,1.89-2.18l-1.25-1.74.44-2.53-2.09-1.44,5.24-.18,1,2,.48-1.4c1-1.48,2-3,3-4.42l1,1.94C101.1,109.77,101.22,108.6,101.28,108Z" transform="translate(-0.13 0)"/><path class="cls-78" d="M189.78,108.75C193.09,109.12,188.09,111.67,189.78,108.75Z" transform="translate(-0.13 0)"/><path class="cls-73" d="M79.92,110l.69-.39a8.74,8.74,0,0,0,3.5.69l-.12.49-1.8,1.56a11.23,11.23,0,0,1-2.14-1.93Z" transform="translate(-0.13 0)"/><path class="cls-79" d="M93.51,111.21c-2.78,1.85-2.58-3.56,0-1.47C93.52,110.11,93.51,110.84,93.51,111.21Z" transform="translate(-0.13 0)"/><path class="cls-80" d="M186.59,109.5c1.66-.54,2.25,0,1.8,1.58C186.72,111.63,186.11,111.09,186.59,109.5Z" transform="translate(-0.13 0)"/><path class="cls-11" d="M176.52,112.72c.45-1.07.91-2.15,1.38-3.22.77,1.33,1.55,2.68,2.3,4l-.11.79c-1.62-.26-3.23-.45-4.87-.55l-1.41,1.08.12-2Z" transform="translate(-0.13 0)"/><path class="cls-81" d="M188,114.61a27.65,27.65,0,0,0,5.87-4.44c.05.78.14,2.36.18,3.14l-3.18,1.15Z" transform="translate(-0.13 0)"/><path class="cls-82" d="M196.05,110.63c1.61-.51,2.16.05,1.64,1.72C196.07,112.86,195.53,112.29,196.05,110.63Z" transform="translate(-0.13 0)"/><path class="cls-9" d="M183.83,115.1c.92-.91,1.89-1.76,2.86-2.62.33.53,1,1.6,1.29,2.13l2.87-.15-2.39,1-2.85-1c.39,1.71.78,3.41,1.08,5.14l.89.39-.4,2.07-3.19-.26.12-.41c1.92,1.26,3.7-2.13.8-1.4.87-1.25,1.22-3.39-.65-3.9L183,119.28l-1.09-1.85,1.29-1.66Z" transform="translate(-0.13 0)"/><path class="cls-83" d="M107.8,113.26C110.85,111.82,107.88,116.6,107.8,113.26Z" transform="translate(-0.13 0)"/><path class="cls-28" d="M173.81,114.84l1.41-1.08c1.64.1,3.25.29,4.87.55,1,.47,2.1,1,3.14,1.46l-1.29,1.66c-2.78-1.3-6.23-1.49-8.46.92C173.58,117.18,173.7,116,173.81,114.84Z" transform="translate(-0.13 0)"/><path class="cls-29" d="M185.61,114.41l2.85,1c-.29,1.49-.59,3-.88,4.5l-.89-.39C186.39,117.82,186,116.12,185.61,114.41Z" transform="translate(-0.13 0)"/><path class="cls-84" d="M94,115.15c1.37-.46,1.83.07,1.38,1.54C94,117.11,93.54,116.6,94,115.15Z" transform="translate(-0.13 0)"/><path class="cls-45" d="M96.75,114.91a9,9,0,0,1,5,2.19l3.19-.35c-1.13.9-2.72,1.81-2.39,3.53,0,3.41.12,6.83,0,10.24,1.86-1,2.81-2.73,3.62-4.55l2.88-.13c-.81-2.52-1.54-5.07-2.16-7.65,2.65,1.31,3.37,4,3.43,6.71-2.43,2.42-4.83,5.06-8,6.44-3.06-.84-5.29-3.32-7.61-5.34H98c.71,1.41,1.43,2.81,2.18,4.21.52-.69,1-1.38,1.53-2.08-.29-2.93.11-5.87-.15-8.78C100.65,117.3,98.24,116.47,96.75,114.91Z" transform="translate(-0.13 0)"/><path class="cls-45" d="M191.6,116.22c2.5-.88,5.19-.94,7.8-1.23l-2.16,2.51c-1.26-.43-2.45-1-3.65-1.53a13.25,13.25,0,0,0-3.38,3.21c-.49,1.5.69,2.83,1.07,4.23-.7,1-1.41,2-2.1,3.08l2.83.66a6.11,6.11,0,0,0,3.81,1.79c-.32-1.17-.62-2.34-.91-3.53,1.21.58,2,1.45,1.31,2.84-.61,2.31-3.94,2.36-5.51,1-2.51-2.06-1.72-5.67-1.44-8.48C189.7,119.19,189.68,116.82,191.6,116.22Z" transform="translate(-0.13 0)"/><path class="cls-55" d="M106.37,116.62c1.82-.56,3.24.69,4.61,1.67l.4-2.29,1-.25,2.13,1a3.22,3.22,0,0,1,4.47-.09c-2.38,1.77-4.49,4.25-7.7,4.32l3.77,1.24a34.38,34.38,0,0,1,8.5-6.62,34.33,34.33,0,0,1,7.92,5.34c.47-1.5.41-3.75,2.32-4.24,2.34.09,2.17,4-.34,3.55l0,.83c.13,3.77.91,7.94-1.53,11.19-2.36,1.7-7.41,1.31-7.53-2.29,0-1.27,0-2.52,0-3.78a16.77,16.77,0,0,0-.22-5c1.3-2,2.21.25,3.08,1.29l.38.79,2.53.34a3.57,3.57,0,0,0-1.72-2.61,36.56,36.56,0,0,0-3.9-2.64c-.59.08-1.76.26-2.35.36-.45.36-1.36,1.09-1.83,1.45a59.35,59.35,0,0,0-4.85,4.54c0,2.73.76,5.41,3.42,6.71-.64-2.59-1.37-5.14-2.17-7.69h3.27c0-.55.14-1.66.19-2.22l2.47-1.44a103.23,103.23,0,0,1,.06,11.4c-2.31,3.21-6.49,1.23-9.18-.29.38.59,1.15,1.76,1.53,2.36a7.43,7.43,0,0,1-3.86-.63,6.46,6.46,0,0,1-4.63.53c2.17-2.26,4.49-4.67,7.81-4.93l-3.82-1.12a31.18,31.18,0,0,1-8.41,6.51c-3.39-1.28-6.13-3.64-8.77-6-1.78.29-3.54.69-5.32.92l.4,1.25c.68,1.71,3.08.59,4.45.58,2-.31,3.32,1.65,4.64,2.81-1.69.11-3.39.13-5.07.15l-1.53.82-.7-.45c-.22-.7-.44-1.41-.65-2.11a5.23,5.23,0,0,1-4.4-1.21l1.12-2.47c.63-1.71,1.12-3.48,1.64-5.22l3.35-2.24c1.13,1.73,2,3.59,3.14,5.31,2.32,2,4.55,4.5,7.61,5.34,3.21-1.38,5.61-4,8-6.44-.06-2.71-.78-5.4-3.43-6.71.62,2.58,1.35,5.13,2.16,7.65l-2.88.13c-.81,1.82-1.76,3.59-3.62,4.55.15-3.41,0-6.83,0-10.24-.33-1.72,1.26-2.63,2.39-3.53Z" transform="translate(-0.13 0)"/><path class="cls-45" d="M199.91,115.18c3.48.74,5.19,6.24,1.34,7.67-1.47,1.54-3.47-3.57-.3-1.14l1.37.3C201.53,119.73,200.58,117.5,199.91,115.18Z" transform="translate(-0.13 0)"/><path class="cls-11" d="M89.77,117.44c2-1.62,2,2.12,0,.86Z" transform="translate(-0.13 0)"/><path class="cls-45" d="M94.54,124.17c-2.21-2.67,2.18-7.37,4.59-4.51l.56,2-2.38-2.6C95.83,120.26,96.88,124.67,94.54,124.17Z" transform="translate(-0.13 0)"/><path class="cls-85" d="M122.29,118.71c.59-.1,1.76-.28,2.35-.36l-.52.66Z" transform="translate(-0.13 0)"/><path class="cls-86" d="M124.64,118.35a36.56,36.56,0,0,1,3.9,2.64c-.29.37-.9,1.1-1.19,1.48-.87-1-1.78-3.24-3.08-1.29-1.83,1.16-1.34,3.88.22,5,0,1.26,0,2.51,0,3.78l-1.63,1.45a103.23,103.23,0,0,0-.06-11.4l-2.47,1.44.14-1.34c.47-.36,1.38-1.09,1.83-1.45l1.83.3Z" transform="translate(-0.13 0)"/><path class="cls-87" d="M145.49,121a35.86,35.86,0,0,1,4.16-2.78q.79,2.25,1.63.06c.91.62,1.81,1.26,2.71,1.92l-.19.72-2.37-.83c0,3.8-.2,7.6-.15,11.4l-1.58-1.11q0-2.11-.15-4.2a3.13,3.13,0,0,0,.36-5c-1-2.07-2.56.37-3.25,1.3C146.37,122.13,145.78,121.4,145.49,121Z" transform="translate(-0.13 0)"/><path class="cls-88" d="M149.65,118.26l1.63.06Q150.44,120.51,149.65,118.26Z" transform="translate(-0.13 0)"/><path class="cls-45" d="M166.58,119.21c1.79-1.36,5.47.52,3,2.6-.21-.7-.62-2.1-.82-2.8a3.88,3.88,0,0,0-1.77,4c-.77.87-1.55,1.72-2.35,2.57C164.75,123.37,164.26,120.51,166.58,119.21Z" transform="translate(-0.13 0)"/><path class="cls-45" d="M175.29,121.72c.33-1.32.61-3.43,2.5-2.91,3.11,0,3.63,3.7,3.53,6.1a38.12,38.12,0,0,1-5.68,5.09c.43-1.39.88-2.76,1.33-4.14h3.17a38.67,38.67,0,0,0-2.43-6.79C177.11,119.73,175.9,121.06,175.29,121.72Z" transform="translate(-0.13 0)"/><path class="cls-89" d="M104.66,119.58C108,119.77,103.07,122.6,104.66,119.58Z" transform="translate(-0.13 0)"/><path class="cls-45" d="M115.61,124.7a59.35,59.35,0,0,1,4.85-4.54l-.14,1.34c0,.56-.15,1.67-.19,2.22h-3.27c.8,2.55,1.53,5.1,2.17,7.69C116.37,130.11,115.63,127.43,115.61,124.7Z" transform="translate(-0.13 0)"/><path class="cls-90" d="M154,120.24a9.79,9.79,0,0,1,2.92,2.63c-1.33,1.9-3.66,0-3.11-1.91Z" transform="translate(-0.13 0)"/><path class="cls-91" d="M184.11,121.34l.8-1.4C187.81,119.21,186,122.6,184.11,121.34Z" transform="translate(-0.13 0)"/><path class="cls-92" d="M124.49,126.23c-1.56-1.17-2-3.89-.22-5A16.77,16.77,0,0,1,124.49,126.23Z" transform="translate(-0.13 0)"/><path class="cls-93" d="M127.35,122.47c.29-.38.9-1.11,1.19-1.48a3.57,3.57,0,0,1,1.72,2.61l-2.53-.34Z" transform="translate(-0.13 0)"/><path class="cls-94" d="M133.54,121.11c.72,4.79,1.91,9.56,1.87,14.41a7,7,0,0,1-3.4-3.22C134.45,129.05,133.67,124.88,133.54,121.11Z" transform="translate(-0.13 0)"/><path class="cls-95" d="M143.7,123.62a3.61,3.61,0,0,1,1.79-2.58c.29.36.88,1.09,1.17,1.47l-.4.79Z" transform="translate(-0.13 0)"/><path class="cls-96" d="M149.91,121.21a3.13,3.13,0,0,1-.36,5A14.33,14.33,0,0,1,149.91,121.21Z" transform="translate(-0.13 0)"/><path class="cls-97" d="M194.94,121.49C198,120,195,124.81,194.94,121.49Z" transform="translate(-0.13 0)"/><path class="cls-31" d="M60.83,123.08a114.72,114.72,0,0,1,.92,13.36c.17-3.2.31-6.41.55-9.61L64,128.26a104.26,104.26,0,0,0,.06,13l-2.35,2.18-1.34-.06C60.28,136.6,60.24,129.83,60.83,123.08Z" transform="translate(-0.13 0)"/><path class="cls-53" d="M89,124.51c1-1.15,2.39-.63,2.88.65-1,.3-2.1.52-3.15.76l.16-.81C89,125,89,124.66,89,124.51Z" transform="translate(-0.13 0)"/><path class="cls-98" d="M112,125.8c-1.07-.86-.36-3.36,1.21-2.67A2,2,0,0,1,114,126Z" transform="translate(-0.13 0)"/><path class="cls-52" d="M160.8,123.73c1.42-1.3,3.29,1.16,1.65,2.18C161,127.11,159.2,124.75,160.8,123.73Z" transform="translate(-0.13 0)"/><path class="cls-31" d="M183.75,123.56a4.24,4.24,0,0,1,3.36.89c-.2,1.84-2,1.52-3.31,1.64C183.79,125.45,183.76,124.19,183.75,123.56Z" transform="translate(-0.13 0)"/><path class="cls-99" d="M197.24,123.63c1.59-.73,2.63,1.5,3.38,2.57l-.12,1h-.42C198.93,126.37,196.64,125.39,197.24,123.63Z" transform="translate(-0.13 0)"/><path class="cls-100" d="M83.88,127.27c1-1.28,2.06-2.57,3.12-3.82-.11,1.57-.29,3.14-.54,4.7l-1.12,2.47a5.23,5.23,0,0,0,4.4,1.21c0,.72,0,2.17-.07,2.89A7.76,7.76,0,0,1,83.88,127.27Z" transform="translate(-0.13 0)"/><path class="cls-45" d="M88.93,125.11c0-.15.09-.45.11-.6C89,124.66,89,125,88.93,125.11Z" transform="translate(-0.13 0)"/><path class="cls-101" d="M131.06,123.9a4.87,4.87,0,0,1-2.35,7.35A23.67,23.67,0,0,1,131.06,123.9Z" transform="translate(-0.13 0)"/><path class="cls-45" d="M142.29,124c1.72,1.31,2,3.47,2.55,5.39,1.2,2.87,1.88-2.71,3.27-.43-.14,1.78-3,2.54-4.3,1.27C141.57,128.9,142.17,126.16,142.29,124Z" transform="translate(-0.13 0)"/><path class="cls-45" d="M156.29,126.73c.75-1,1.52-1.87,2.29-2.79.28,2.45.31,5.88-2.56,6.79-1.76.71-3.27-.76-3.64-2.4l1.59.5.7,1.73A3.73,3.73,0,0,0,156.29,126.73Z" transform="translate(-0.13 0)"/><path class="cls-58" d="M184.87,124.46Z" transform="translate(-0.13 0)"/><path class="cls-102" d="M200.62,126.2a22.25,22.25,0,0,1,3,.33,4,4,0,0,1,1,2.4c-1.55.08-2.84-1.08-4.18-1.7Z" transform="translate(-0.13 0)"/><path class="cls-11" d="M203.21,125.33c1,.75,2,1.49,2.95,2.21-.11.48-.35,1.43-.47,1.91a32.4,32.4,0,0,1-4,3.83c-.42-.44-1.26-1.3-1.68-1.72-.94-.2-1.88-.36-2.83-.49l-2,1.07c1-.94,1.93-1.93,2.88-2.94l1.52,1.26a2.74,2.74,0,0,0,2.68.88c0-1.52-1.14-2.79-1.76-4.11,1.34.62,2.63,1.78,4.18,1.7a4,4,0,0,0-1-2.4Z" transform="translate(-0.13 0)"/><path class="cls-103" d="M212.6,142.44c.07-5.74-.11-11.52.65-17.22a157.37,157.37,0,0,1,.29,18.93Z" transform="translate(-0.13 0)"/><path class="cls-23" d="M39.56,131.64c-.41-4.17,5.52-6.67,8.63-4.25a18.52,18.52,0,0,1,2.5,3.19c-2.23.89-3.36-2-5.4-2.2-2.24-.16-3.39,2-4.86,3.31.23.86.46,1.73.68,2.59l-3.44,0A27,27,0,0,1,39.56,131.64Z" transform="translate(-0.13 0)"/><path class="cls-104" d="M166.91,126.26c1.49-1,3.42,1.3,2.78,2.74C168.4,129.32,166.41,127.63,166.91,126.26Z" transform="translate(-0.13 0)"/><path class="cls-105" d="M160.29,128.37l3.68-.91A38.77,38.77,0,0,0,172.7,134a42.84,42.84,0,0,0,8.93-6l2.24.05-.25.55a64.07,64.07,0,0,0-5.63,5,29,29,0,0,1,8.58,0q-.34-1.67-.66-3.33c3,.77,6.16,3.76,9.27,1.85l2-1.07c.95.13,1.89.29,2.83.49.42.42,1.26,1.28,1.68,1.72a32.4,32.4,0,0,0,4-3.83l.09,1.4c0,1.85-.08,3.7-.17,5.55-9,1.22-18-.33-27,0,2.62,1.69,6.31.59,9.34,1l-1.59,1.27a91.72,91.72,0,0,0-10.74-.38c2.82,2,6.62,1,9.87,1.06l-.68.53c-4.33.61-8.72.11-13.06.57-7.38.41-14.68,2.12-22.09,1.47,3.28-1.08,6.77-.61,10.16-.68.41-1.22.71-2.64,2-3.23,4.59.24,9.19.79,13.79.56-3.63-2.19-8.37-.8-12.46-1.45-6.15-.4-12.51-1.28-18.54.44l-1.3,1.19-2.18.3c-1,.48-2.13.92-3.23,1.31,1.57-3,5-4,8.14-4.59,10.1-1.72,20.31,1.1,30.42.22-3.81-1-7.79-.7-11.65-1.26l3-1.95A22.19,22.19,0,0,0,160.29,128.37Z" transform="translate(-0.13 0)"/><path class="cls-106" d="M183.87,128.08c1.16-.07,3.3-1.28,3.79.37-.45,1.86-3.11,1.34-4,.18Z" transform="translate(-0.13 0)"/><path class="cls-43" d="M199.58,130.46a14.59,14.59,0,0,1,.5-3.23h.42c.62,1.32,1.78,2.59,1.76,4.11A2.74,2.74,0,0,1,199.58,130.46Z" transform="translate(-0.13 0)"/><path class="cls-107" d="M120.37,128.58C123.69,128.8,118.75,131.58,120.37,128.58Z" transform="translate(-0.13 0)"/><path class="cls-108" d="M126.56,128.58C129.88,128.88,125,131.55,126.56,128.58Z" transform="translate(-0.13 0)"/><path class="cls-109" d="M41.62,134.66c-.39-2.84,1.31-4.82,3.65-6.12,2.13,1.39,2.63,3.73,2.22,6.12Z" transform="translate(-0.13 0)"/><path class="cls-12" d="M88.6,130c1.11-.8,4.12-1,4.45.58C91.68,130.62,89.28,131.74,88.6,130Z" transform="translate(-0.13 0)"/><path class="cls-110" d="M172.06,130.24C175.16,128.79,172.19,133.52,172.06,130.24Z" transform="translate(-0.13 0)"/><path class="cls-111" d="M48.22,131.49l2.77.07q-.06,4.77,0,9.55l-2.64.12A46.64,46.64,0,0,1,48.22,131.49Z" transform="translate(-0.13 0)"/><path class="cls-23" d="M52.4,131.42l2.31.17a86.38,86.38,0,0,0,0,9.52l-2.29.12C52.37,138,52.37,134.69,52.4,131.42Z" transform="translate(-0.13 0)"/><path class="cls-42" d="M205.78,130.85l1.26.55c-.39,2-1.27,4.38.25,6.12a9.31,9.31,0,0,0,.14-6l.8.25c.29,2.47.34,4.95.75,7.41l.68,1.33.48,1-.68-.31c-1.46-.83-3-1.61-4.72-1.31a114.92,114.92,0,0,1-15.19,0c5.9-.41,11.8-.17,17.7-.34-1.3-3.31-4.9-2.12-7.64-2.09-3.9.29-7.79-.14-11.68-.09-3-.37-6.72.73-9.34-1,9-.34,18,1.21,27,0C205.7,134.55,205.79,132.7,205.78,130.85Z" transform="translate(-0.13 0)"/><path class="cls-100" d="M207,131.4l.39.13a9.31,9.31,0,0,1-.14,6C205.77,135.78,206.65,133.38,207,131.4Z" transform="translate(-0.13 0)"/><path class="cls-105" d="M208.23,131.78l1,.31a67.84,67.84,0,0,1,.46,8.43l-.68-1.33C208.57,136.73,208.52,134.25,208.23,131.78Z" transform="translate(-0.13 0)"/><path class="cls-11" d="M219.52,130.92c3.06-.07,6.37-.24,9.07,1.5,3,1.68,4.2,5.11,6.67,7.31,3.59,2.32,8.27.26,11.94,2.4,1,1.6-1,2.83-1.85,3.88a14.39,14.39,0,0,1-11.62,2.64c-3.18-.79-5-3.73-7.45-5.64-2-1.26-4.52-.95-6.76-1.21Q219.37,136.35,219.52,130.92Z" transform="translate(-0.13 0)"/><path class="cls-112" d="M30.87,135.47a111.92,111.92,0,0,1,16.48,0c0,.43,0,1.3,0,1.75a79.75,79.75,0,0,1-15.83,0C31.35,136.72,31,135.89,30.87,135.47Z" transform="translate(-0.13 0)"/><path class="cls-100" d="M96.68,136.49c9.9-.15,19.72-1.6,29.64-1.38.11.45.33,1.34.45,1.8-3.87-.23-7.74-.21-11.61-.18l-1.78-.54-2.86,1c-3.69.13-7.38.35-11.06.68Z" transform="translate(-0.13 0)"/><path class="cls-9" d="M94.24,136.68c.81-.1,1.62-.17,2.44-.19l2.78,1.35,1,.49c4.1,2.06,8.9.49,13.29,1.18a59.25,59.25,0,0,0,9,1.23l.28.89a29.77,29.77,0,0,0-8.25.86,61.16,61.16,0,0,1-15.08-1.4l-2-2.06-.84-.61C96.21,138,94.89,137.13,94.24,136.68Z" transform="translate(-0.13 0)"/><path class="cls-113" d="M110.52,137.16l2.86-1,1.78.54,1.31.38c2.7.65,5.51.9,8.11,1.94l.89,1.27a29.81,29.81,0,0,0,4.16,2l-5.21.19,1,1.18,0,.5.12,1.88,2.23.21c-.63.91-1.26,1.84-1.87,2.76-8.79-.49-17.63.3-26.39-.44,8.5-.44,17,.22,25.54-.4a51.14,51.14,0,0,0-6.22-1.37l5.26-1.94c-.07-.19-.23-.58-.3-.78l-.32-.84-.21-.61-.3-1-.28-.89a59.25,59.25,0,0,1-9-1.23l-1.94-1.4Z" transform="translate(-0.13 0)"/><path class="cls-114" d="M127.8,137c0-.2.13-.6.17-.8,1.86-.13,4.79.19,5.53,2.16A18.33,18.33,0,0,1,127.8,137Z" transform="translate(-0.13 0)"/><path class="cls-115" d="M144.61,137.53c6-1.72,12.39-.84,18.54-.44l-1.33.89c-1.31.59-1.61,2-2,3.23-3.39.07-6.88-.4-10.16.68l.8,2.54c1.39.71,2.8,1.36,4.2,2.06a50.52,50.52,0,0,1-5.9-.22c.16-1.26.32-2.53.49-3.79l-4,.11c1.19-.61,2.36-1.25,3.52-1.9l.79-.94.61-.64c2.66-.41,5.34-.68,8-1.25a56.77,56.77,0,0,0-14.78.86Z" transform="translate(-0.13 0)"/><path class="cls-116" d="M225.05,136.6c2-1.59,4,.55,2.62,2.55C225.79,140.27,224.61,138.29,225.05,136.6Z" transform="translate(-0.13 0)"/><path class="cls-105" d="M67,138.56c2.63-1.24,5.54-.78,8.33-.75a103.21,103.21,0,0,0,18.91-1.13c.65.45,2,1.31,2.63,1.74a38.94,38.94,0,0,0-9.4.54C80.75,140.41,73.71,139.86,67,138.56Z" transform="translate(-0.13 0)"/><path class="cls-42" d="M99.46,137.84c3.68-.33,7.37-.55,11.06-.68l1.28,1c-3.78,0-7.56.41-11.35.22Z" transform="translate(-0.13 0)"/><path class="cls-100" d="M116.47,137.11c5.76.76,12.53-.4,17.21,3.78l-5-.78L131,142.6l-1.37-.32a29.81,29.81,0,0,1-4.16-2,2.28,2.28,0,0,0,3-.63,9.38,9.38,0,0,0-3.92-.64C122,138,119.17,137.76,116.47,137.11Z" transform="translate(-0.13 0)"/><path class="cls-105" d="M143.31,138.72a56.77,56.77,0,0,1,14.78-.86c-2.64.57-5.32.84-8,1.25a37.26,37.26,0,0,0-8.58,2l-.4-2.14.65.51Z" transform="translate(-0.13 0)"/><path class="cls-117" d="M163.15,137.09c4.09.65,8.83-.74,12.46,1.45-4.6.23-9.2-.32-13.79-.56Z" transform="translate(-0.13 0)"/><path class="cls-113" d="M187.93,137.37c3.89-.05,7.78.38,11.68.09,2.74,0,6.34-1.22,7.64,2.09-5.9.17-11.8-.07-17.7.34a114.92,114.92,0,0,0,15.19,0c1.72-.3,3.26.48,4.72,1.31-9.74.21-19.45,1-29.16,1.73,7.82,1.36,15.58-.82,23.4-.74,2.3.05,4.8-.25,6.83,1.07-4.29.52-8.6.42-12.91.6,5,.67,10.32-.88,15.06,1.2a105.87,105.87,0,0,1-21.87-.38,30.1,30.1,0,0,0-11.58.46c-4.07,1-8.34.7-12.36,1.93a28.91,28.91,0,0,1-2.93-.5c4-2.75,9-2.37,13.6-2.8-9-.22-18.08,2.82-27.1.62l-.8-2.54c7.41.65,14.71-1.06,22.09-1.47,4.34-.46,8.73,0,13.06-.57l.68-.53.87-.68Z" transform="translate(-0.13 0)"/><path class="cls-23" d="M38,138.31l3.17,0c-.22.88-.45,1.76-.67,2.65,1.5,1.21,2.63,3.56,4.9,3.22,2-.27,3.16-2.74,5.36-2.21-1.16,1.62-2.24,3.91-4.5,4.11-3,.68-7-1.79-6.61-5.12A3.72,3.72,0,0,1,38,138.31Z" transform="translate(-0.13 0)"/><path class="cls-118" d="M41.61,138c2,0,4,0,5.92,0,.16,2.07.43,5.16-2.35,5.55C42.48,143.18,41.4,140.4,41.61,138Z" transform="translate(-0.13 0)"/><path class="cls-100" d="M100.45,138.33c3.79.19,7.57-.17,11.35-.22l1.94,1.4C109.35,138.82,104.55,140.39,100.45,138.33Z" transform="translate(-0.13 0)"/><path class="cls-119" d="M133.5,138.36c1.91-1.58,2.17,2.78.16.84Z" transform="translate(-0.13 0)"/><path class="cls-120" d="M141.13,139l2.18-.3-1.53.81Z" transform="translate(-0.13 0)"/><path class="cls-121" d="M175.6,138.26a91.72,91.72,0,0,1,10.74.38l-.87.68C182.22,139.23,178.42,140.23,175.6,138.26Z" transform="translate(-0.13 0)"/><path class="cls-122" d="M86.85,140.43c3.25-2,7.24-1.24,10.86-1.4l2,2.06C95.45,140.57,91.12,140.91,86.85,140.43Z" transform="translate(-0.13 0)"/><path class="cls-42" d="M124.58,139.05a9.38,9.38,0,0,1,3.92.64,2.28,2.28,0,0,1-3,.63Z" transform="translate(-0.13 0)"/><path class="cls-28" d="M65.17,141.5c1.26-2.4,4.09-1.42,6.2-1.43,6.63.8,13.34.47,19.94,1.52,10.78.22,21.45,2.08,32.25,1.64l.32.84c-10.06.13-20-1.58-30.08-1.39C84.3,141.49,74.71,142.07,65.17,141.5Z" transform="translate(-0.13 0)"/><path class="cls-45" d="M143.26,141.4c2.08-.52,4.18-1,6.24-1.65l-.79.94c-1.16.65-2.33,1.29-3.52,1.9l4-.11c-.17,1.26-.33,2.53-.49,3.79L147,145.05C145.74,143.84,144.52,142.59,143.26,141.4Z" transform="translate(-0.13 0)"/><path class="cls-28" d="M114.8,142.49a29.77,29.77,0,0,1,8.25-.86l.3,1C120.5,142.48,117.65,142.5,114.8,142.49Z" transform="translate(-0.13 0)"/><path class="cls-123" d="M233,141.47c2-.76,2.84,2.56.8,2.92C232,144.89,231.15,141.93,233,141.47Z" transform="translate(-0.13 0)"/><path class="cls-28" d="M64.35,143.42,65,142c9.13,1.29,18.41.75,27.61,1.11a10.86,10.86,0,0,1-4.19.92c-8.56,0-17.06,1.88-25.63.92L62,143.9c5,.06,9.95.42,14.92,0C72.75,143.46,68.54,143.54,64.35,143.42Z" transform="translate(-0.13 0)"/><path class="cls-124" d="M124.42,142.47l5.21-.19a6.81,6.81,0,0,1-4,3.75l-.12-1.88.37.15,0-.4-.43-.25Z" transform="translate(-0.13 0)"/><path class="cls-125" d="M241,142.77c2.35-.19,2.08,4.18-.3,3.48C238.84,146.51,239.34,142.18,241,142.77Z" transform="translate(-0.13 0)"/><path class="cls-126" d="M125.47,143.65l.43.25,0,.4-.37-.15Z" transform="translate(-0.13 0)"/><path class="cls-1" d="M57,148.39c1.57-1.44,3.11-2.91,4.69-4.34-1,1.52-2.06,3-3.11,4.49,7.59-.17,15.19-.23,22.77.24,4.55.16,9.13.7,13.66,0l-.19.22c-4.16.25-8.33.15-12.5.33-8,0-16-.07-24-.07Z" transform="translate(-0.13 0)"/><path class="cls-127" d="M96.38,147.1a40.74,40.74,0,0,1,9.3,0c-2.22.07-4.46.11-6.68.17l.6,1.26c8.76.74,17.6-.05,26.39.44.61-.92,1.24-1.85,1.87-2.76l.76-.09c-.46,1.74-.87,3.48-1.3,5.21-9.38-.65-18.83-.18-28.23-.25,0,.64.11,1.89.15,2.51.09,1.57.18,3.13.38,4.68l.25,1.55c-1.87.08-3.72.26-5.56.52a41.09,41.09,0,0,0,1.31-6.77c0-.64.17-1.92.23-2.57-4.49-.24-9-.08-13.46-.16l-.11-1.5c4.17-.18,8.34-.08,12.5-.33l.19-.22C95.33,148.4,96,147.53,96.38,147.1Z" transform="translate(-0.13 0)"/><path class="cls-128" d="M105.68,147.13c4.42-.07,8.82-.79,13.24-.34a51.14,51.14,0,0,1,6.22,1.37c-8.51.62-17,0-25.54.4L99,147.3C101.22,147.24,103.46,147.2,105.68,147.13Z" transform="translate(-0.13 0)"/><path class="cls-100" d="M146.64,146.89c5.82,1.07,11.55-2,17.3-.28a28.91,28.91,0,0,0,2.93.5c7.81,1.09,15.66.08,23.46-.22-2.15.28-4.3.51-6.42.91-8,1.36-16.23.56-24.35.78C155.23,148.43,150.51,149.36,146.64,146.89Z" transform="translate(-0.13 0)"/><path class="cls-129" d="M96.67,148c.38-.21,1.14-.59,1.52-.79a92.29,92.29,0,0,1,.16,10.65l-1.84-.48A33.86,33.86,0,0,1,96.67,148Z" transform="translate(-0.13 0)"/><path class="cls-11" d="M55.24,149.31h3.08c8,0,16,.07,24,.07l.11,1.5c-9-.22-18,.27-27-.26Z" transform="translate(-0.13 0)"/><path class="cls-3" d="M99.62,158.3c1.33,2.14,3,4.47,2.17,7.14-1.14,3.72-7.12,4-8.71.47-.5-1.85-.73-4.43,1.23-5.54-.72,2.08-1.61,5,.61,6.56,2.1,2.06,6.13.36,6.27-2.53.23-1.63-.8-3.08-1.32-4.55Z" transform="translate(-0.13 0)"/><path class="cls-24" d="M94.31,160.37c1.84-.26,3.69-.44,5.56-.52.52,1.47,1.55,2.92,1.32,4.55-.14,2.89-4.17,4.59-6.27,2.53C92.7,165.4,93.59,162.45,94.31,160.37Z" transform="translate(-0.13 0)"/><path class="cls-98" d="M2.19,185.49c54.81-.19,109.63,0,164.45-.09,35.14.12,70.29-.2,105.43.16.24,22,0,44.07.11,66.11.45,15.81-2.18,32.21-10.83,45.73-2.23,4-5.62,7.14-8,11.07-1.22.34-2.46.62-3.64,1.08-7.29,2.13-12.91,8.9-21,8.25-8.63.69-14.55-6.75-22.46-8.68-2.65-3.55-6.11-6.41-8.58-10.08-.67-2.43-1.24-4.86-1.91-7.28-.07-.26-.22-.77-.29-1-.87-3.05-1.64-6.13-2.47-9.19l-.31-1.09c-.42-1.53-.84-3.05-1.27-4.56.31-1.07.66-2.11,1.06-3.14l2.09-2.47.67.06,1,.1c-.05-6.59-.38-13.2.29-19.76,0-1.88.45-3.86-.24-5.66-1.55-1.65-3.66-2.64-5.38-4.09-.3-.38-.89-1.13-1.2-1.51a16.4,16.4,0,0,0-6.37,5.83c-.56,3.15-.32,6.38-.46,9.56q-3.85.1-7.7.31c-.22,2.77-.4,5.53-.57,8.31-4.16-.07-8.32-.09-12.48-.2,0-2.71,0-5.4,0-8.11l-5.71-.46c-.18-8.73-.49-17.48.11-26.19l.32-.7c1.55-1.49,3.12-2.94,4.66-4.46-16.1.06-32.2-.14-48.3.19.71.79,1.43,1.57,2.17,2.34s1.46,1.54,2.18,2.35c0,9,.37,18.06-.17,27.08-1.66,0-3.3,0-5,0-1.06,2.37-1,5-1.12,7.53-4.14.11-8.28.07-12.42-.09q0-3.79,0-7.58l-7.76,0c-.29-3.39.87-7.31-1.23-10.29-1.72-1.73-3.46-3.45-5.13-5.22-1.6,1.6-3.19,3.23-4.93,4.69-.48.38-.95.76-1.42,1.16-1.35,2.54-.88,5.5-.93,8.27.2,5.38-.29,10.8.35,16.17l1.33.92c.95.62,1.93,1.23,2.87,1.89l1.52,1.21-.28,1c-.34,1.21-.69,2.4-1,3.61-.29,1-.57,2-.84,3.07-.42,1.59-.86,3.17-1.34,4.74a32,32,0,0,0-1.75,6c-.34,1.74-.66,3.48-1.09,5.2-.44.91-.93,1.81-1.44,2.69-3.4,2.83-6,6.41-9.35,9.32-7,2.26-12.51,8.42-20.25,8.19-9.27.84-15.59-7.29-24.22-9.07-7.81-7.27-13.12-17.12-16.42-27.23C1.13,268,2.13,253.66,2,239.7,2.13,221.63,1.8,203.56,2.19,185.49Z" transform="translate(-0.13 0)"/><path class="cls-6" d="M112.57,206.88q4.49.08,9,0c.12,2.29.15,4.6.13,6.91,3.32.06,6.63.06,9.95,0,0-2.31,0-4.62,0-6.91,3.78,0,7.55,0,11.32.13q-.06,3.39,0,6.8c3.29,0,6.57,0,9.85,0,0-2.29,0-4.59,0-6.87q4.63,0,9.28,0c0,5.17-.08,10.35.06,15.52-16.55.29-33.07,0-49.62.33C112.52,217.49,112.47,212.18,112.57,206.88Z" transform="translate(-0.13 0)"/><path class="cls-100" d="M113.2,223.5c16.1-.33,32.2-.13,48.3-.19-1.54,1.52-3.11,3-4.66,4.46-12.46-.22-24.92.07-37.38-.12a5.5,5.5,0,0,1-4.09-1.81C114.63,225.07,113.91,224.29,113.2,223.5Z" transform="translate(-0.13 0)"/><path class="cls-115" d="M115.37,225.84a5.5,5.5,0,0,0,4.09,1.81c12.46.19,24.92-.1,37.38.12l-.32.7c-.2.45-.59,1.35-.79,1.79-6,0-12-.17-18,.11q0,3.63,0,7.26l3.32.21c-.06-1.75-.11-3.49-.17-5.23q4-.13,8.06-.19c0,1.77,0,3.56,0,5.34l6.72,0v1.45c-2.25,0-4.49-.07-6.74-.09.06,2.11.13,4.23.19,6.35q-4.1,0-8.2-.05c.08-2,.16-4.09.24-6.12l-3.26-.29c-.11,4-.11,8.05-.13,12.08h-1.19c0-4,0-8-.12-12l-3.09,0v-1.29l3.21-.07c0-2.5,0-5,0-7.47-5.78-.05-11.54-.06-17.31,0,0,2.49-.06,5-.07,7.49l6.42,0v1.36l-6.19-.1c-.24,3.87-.28,7.73-.23,11.6,2.16,0,4.32.1,6.48.25,0,.26.05.79.07,1a56.64,56.64,0,0,0-6.25.14l-.48,2.61,6.81,0,0,1c-4.13.06-8.25.07-12.38,0-.05,3-.07,6-.1,8.94-5,.06-10,.15-15,0l0-.73h.56c4.6.09,9.21.08,13.82,0,0-2.9,0-5.81-.3-8.71,1.66-.06,3.3,0,5,0h1.28c.12-6.88-.11-13.75,0-20.63-.1-2.17.35-4.64-1.15-6.46C116.83,227.38,116.1,226.61,115.37,225.84Z" transform="translate(-0.13 0)"/><path class="cls-130" d="M117.55,228.19c1.5,1.82,1,4.29,1.15,6.46-.15,6.88.08,13.75,0,20.63h-1.28C117.92,246.25,117.54,237.21,117.55,228.19Z" transform="translate(-0.13 0)"/><path class="cls-3" d="M155.73,230.26c.2-.44.59-1.34.79-1.79-.6,8.71-.29,17.46-.11,26.19l5.71.46c0,2.71,0,5.4,0,8.11,4.16.11,8.32.13,12.48.2l.83,0c0-2.79-.13-5.56-.26-8.33q3.84-.21,7.7-.31c.14-3.18-.1-6.41.46-9.56a16.4,16.4,0,0,1,6.37-5.83c-1.71,2-3.53,3.83-5.3,5.75,2.59-.2,5.37.26,7.83-.71.23-1.27-1-2.35-1.33-3.53,1.72,1.45,3.83,2.44,5.38,4.09.69,1.8.27,3.78.24,5.66-.67,6.56-.34,13.17-.29,19.76l-1-.1c0-.35.12-1,.17-1.39.37-7.56,0-15.14.2-22.72v-.67c-4-.09-8-.17-11.93-.13a101.71,101.71,0,0,1-.46,10.18c-2.39-.06-4.78-.09-7.16-.11,0,3,0,5.95,0,8.91-4.91,0-9.82,0-14.73,0q0-4.41,0-8.82c-4.68,0-9.37-.28-14,0l-.3.21c.28-1.37.6-2.74.92-4.09l1-.05c0,.8-.07,2.41-.09,3.21,2.27,0,4.53,0,6.81,0v-4c0-3.91,0-7.81,0-11.72v-1.45C155.64,235.24,155.61,232.75,155.73,230.26Z" transform="translate(-0.13 0)"/><path class="cls-131" d="M119.22,230.23c5.77,0,11.53,0,17.31,0,0,2.49,0,5,0,7.47l-3.21.07,0-5.22h-7.72c0,1.72,0,3.46,0,5.19l-6.42,0C119.16,235.21,119.18,232.72,119.22,230.23Z" transform="translate(-0.13 0)"/><path class="cls-29" d="M137.71,230.37c6-.28,12-.16,18-.11-.12,2.49-.09,5-.07,7.47l-6.72,0c0-1.78,0-3.57,0-5.34q-4,.06-8.06.19c.06,1.74.11,3.48.17,5.23l-3.32-.21Q137.76,234,137.71,230.37Z" transform="translate(-0.13 0)"/><path class="cls-98" d="M125.61,232.57h7.72l0,5.22v1.29q0,3.1,0,6.21H125.6c0-2.05,0-4.11,0-6.15v-1.36C125.58,236,125.59,234.29,125.61,232.57Z" transform="translate(-0.13 0)"/><path class="cls-132" d="M141.49,244.87c.2-4-1.4-8.85,1-12.2,0,3.74-.12,7.48,0,11.23l5.21,0c.14-3.76.05-7.51,0-11.27,2.27,3.45.74,8.14.88,12.09C146.2,244.91,143.84,244.94,141.49,244.87Z" transform="translate(-0.13 0)"/><path class="cls-58" d="M142.45,232.67a30.22,30.22,0,0,0,5.21,0c0,3.76.11,7.51,0,11.27l-5.21,0C142.33,240.15,142.42,236.41,142.45,232.67Z" transform="translate(-0.13 0)"/><path class="cls-5" d="M119.38,239l6.19.1c0,2,0,4.1,0,6.15h7.73q0-3.1,0-6.21l3.09,0c.11,4,.12,8,.12,12l-3.26,0c-2.56,0-5.12,0-7.68-.15-2.16-.15-4.32-.2-6.48-.25C119.1,246.75,119.14,242.89,119.38,239Z" transform="translate(-0.13 0)"/><path class="cls-5" d="M137.89,239l3.26.29c-.08,2-.16,4.08-.24,6.12q4.11,0,8.2.05c-.06-2.12-.13-4.24-.19-6.35,2.25,0,4.49,0,6.74.09,0,3.91,0,7.81,0,11.72-6,.14-11.94.1-17.91.16C137.78,247,137.78,243,137.89,239Z" transform="translate(-0.13 0)"/><path class="cls-45" d="M79.82,244.32c1.74-1.46,3.33-3.09,4.93-4.69,1.67,1.77,3.41,3.49,5.13,5.22C86.52,245,83.07,245.37,79.82,244.32Z" transform="translate(-0.13 0)"/><path class="cls-5" d="M189.74,239.42c.31.38.9,1.13,1.2,1.51.34,1.18,1.56,2.26,1.33,3.53-2.46,1-5.24.51-7.83.71C186.21,243.25,188,241.38,189.74,239.42Z" transform="translate(-0.13 0)"/><path class="cls-42" d="M78.4,245.48c.47-.4.94-.78,1.42-1.16,3.25,1.05,6.7.66,10.06.53,2.1,3,.94,6.9,1.23,10.29l7.76,0q0,3.78,0,7.58l0,1.22h-.56c-.1-2.74-.07-5.48,0-8.22q-3.45,0-6.9,0c.08,4.4,0,8.79-.12,13.2q45.87.07,91.72,0c0-4.46-.16-8.92.25-13.36a101.71,101.71,0,0,0,.46-10.18c4,0,8,0,11.93.13v.67l-11.59,0c0,7.58.14,15.15.13,22.72,3.75,0,7.5,0,11.26,0,0,.35-.13,1-.17,1.39l-.67-.06a74,74,0,0,0-9.88-.21c1.74,2.52,4.85,5.43,7.79,2.68-.4,1-.75,2.07-1.06,3.14l-.27-.57a10.32,10.32,0,0,1-7-4.11l-3.22,0q0,4.6,0,9.23c3.93.05,7.85-.05,11.78.06l.31,1.09-5.21.1c0,3,0,6,0,9,2.54,0,5.08,0,7.63.05.07.26.22.77.29,1-5.07-.06-10.16,0-15.24,0,0,2.88.07,5.77.17,8.65q-31.66.28-63.32,0c.15-9.55.12-19.12,0-28.68h-1.33c0,9.56-.06,19.11,0,28.65l-1.25,0c-.31-3.06,1.1-6.81-1.26-9.3a60,60,0,0,0-.08,9.29H112.3c.07-2.89.09-5.76.09-8.64-5.79,0-11.59,0-17.39,0,0,2.88,0,5.77.08,8.64q-9.63.25-19.28-.09c.51-.88,1-1.78,1.44-2.69-.17.67-.51,2-.67,2.67,5.76,0,11.52,0,17.26,0,0-2.84,0-5.66,0-8.5-5.14.31-10.47-.79-15.48.66a32,32,0,0,1,1.75-6c-.31,1.44-.59,2.9-.87,4.36h7.32q.06-4.56.06-9.12c-1.72,0-3.45,0-5.17,0,.27-1,.55-2,.84-3.07,0,.46.12,1.39.17,1.86,3.67.08,7.35,0,11,0,.13-3.15.16-6.3.12-9.45-2.91-.32-4.91,1.65-6.66,3.67l-3.66.27.28-1,2.8-.11c1.1-1.26,2.2-2.54,3.28-3.81-2.94,0-5.88,0-8.81,0L82,272.73c-.94-.66-1.92-1.27-2.87-1.89C77.85,262.45,79,253.93,78.4,245.48Z" transform="translate(-0.13 0)"/><path class="cls-12" d="M127.06,244.16a5.57,5.57,0,0,1,4.86-.17C131.59,245.64,127.57,245.57,127.06,244.16Z" transform="translate(-0.13 0)"/><path class="cls-133" d="M77.47,253.75c0-2.77-.42-5.73.93-8.27.6,8.45-.55,17,.75,25.36l-1.33-.92C77.18,264.55,77.67,259.13,77.47,253.75Z" transform="translate(-0.13 0)"/><path class="cls-6" d="M79.13,246.23c3.74,0,7.49,0,11.24,0-.1,7.6.28,15.18,0,22.76-3.77,0-7.53,0-11.3,0C79.12,261.35,79,253.79,79.13,246.23Z" transform="translate(-0.13 0)"/><path class="cls-134" d="M184,246.21l11.59,0c-.23,7.58.17,15.16-.2,22.72-3.76,0-7.51,0-11.26,0C184.17,261.36,184.07,253.79,184,246.21Z" transform="translate(-0.13 0)"/><path class="cls-3" d="M187.92,248.45h3.49c.09,3.85.09,7.71,0,11.56h-3.54C187.84,256.17,187.83,252.31,187.92,248.45Z" transform="translate(-0.13 0)"/><path class="cls-135" d="M83,248.48h3.76q0,5.78,0,11.55H83Q83,254.25,83,248.48Z" transform="translate(-0.13 0)"/><path class="cls-98" d="M189,249l1.31,0a20.7,20.7,0,0,1,.6,7.72c-.17,1.18-.07,3.28-1.86,2.78A21.9,21.9,0,0,1,189,249Z" transform="translate(-0.13 0)"/><path class="cls-136" d="M84.51,249.29c1.87,2.74.62,6.37.92,9.48l-1.15,0A83.83,83.83,0,0,1,84.51,249.29Z" transform="translate(-0.13 0)"/><path class="cls-3" d="M125.63,250.87c2.56.14,5.12.14,7.68.15v.6c-.11,4-.09,8-.05,12l-.91,0a99.28,99.28,0,0,0,0-11.7h-6a25.72,25.72,0,0,1,1.77,11.77l-1,.64c.06-2.86.12-5.72,0-8.58l-1.33,0,0-1-.08-2.77C125.68,251.66,125.65,251.13,125.63,250.87Z" transform="translate(-0.13 0)"/><path class="cls-1" d="M133.31,251l3.26,0h1.19c6-.06,11.93,0,17.91-.16v.6c-2.24,0-4.48.07-6.72.17l-1,.05c-2.27.12-4.53.21-6.8.18l-3.43-.1c-.1,3.92-.23,7.85-.15,11.78l3.57,0,5.18-.12a55.21,55.21,0,0,1,.71-7.61l.3-.21c-.07,3-.08,5.89-.05,8.83-6.72-.17-13.45,0-20.16-.1l1-.64c1.39-.07,2.79-.09,4.2-.08l.91,0,3.65.14q.09-6.09,0-12.16H133.3Z" transform="translate(-0.13 0)"/><path class="cls-53" d="M126.37,251.92h6a99.28,99.28,0,0,1,0,11.7c-1.41,0-2.81,0-4.2.08A25.72,25.72,0,0,0,126.37,251.92Z" transform="translate(-0.13 0)"/><path class="cls-73" d="M133.3,251.62h3.64q0,6.07,0,12.16l-3.65-.14C133.21,259.63,133.19,255.62,133.3,251.62Z" transform="translate(-0.13 0)"/><path class="cls-6" d="M137.7,251.8l3.43.1q0,5.82,0,11.64l-3.57,0C137.47,259.65,137.6,255.72,137.7,251.8Z" transform="translate(-0.13 0)"/><path class="cls-52" d="M141.13,251.9c2.27,0,4.53-.06,6.8-.18-.32,1.35-.64,2.72-.92,4.09a55.21,55.21,0,0,0-.71,7.61l-5.18.12Q141.12,257.72,141.13,251.9Z" transform="translate(-0.13 0)"/><path class="cls-6" d="M149,251.67c2.24-.1,4.48-.14,6.72-.17v3.37c-2.28,0-4.54,0-6.81,0C148.88,254.08,148.93,252.47,149,251.67Z" transform="translate(-0.13 0)"/><path class="cls-137" d="M119.45,252.06a56.64,56.64,0,0,1,6.25-.14l.08,2.77-6.81,0Z" transform="translate(-0.13 0)"/><path class="cls-6" d="M91.39,255.77q3.45,0,6.9,0c0,2.74-.05,5.48,0,8.22l0,.73c5,.13,10,0,15,0,0-3,0-6,.1-8.94,4.13.07,8.25.06,12.38,0l1.33,0c.08,2.86,0,5.72,0,8.58,6.71.12,13.44-.07,20.16.1,0-2.94,0-5.88.05-8.83,4.67-.32,9.36-.07,14,0q0,4.41,0,8.82c4.91,0,9.82,0,14.73,0,0-3,0-5.94,0-8.91,2.38,0,4.77.05,7.16.11-.41,4.44-.24,8.9-.25,13.36q-45.87.07-91.72,0C91.41,264.56,91.47,260.17,91.39,255.77Z" transform="translate(-0.13 0)"/><path class="cls-138" d="M111.3,262.84c.14-2.54.06-5.16,1.12-7.53.25,2.9.3,5.81.3,8.71-4.61,0-9.22,0-13.82,0l0-1.22C103,262.91,107.16,263,111.3,262.84Z" transform="translate(-0.13 0)"/><path class="cls-139" d="M174.64,263.43c.17-2.78.35-5.54.57-8.31.13,2.77.22,5.54.26,8.33Z" transform="translate(-0.13 0)"/><path class="cls-6" d="M136.78,270.08c2.23.56,4.37,1.39,6.53,2.15l-.64.66c-2.36.1-4.28-2.27-6.84-1.34C136.07,271.18,136.55,270.45,136.78,270.08Z" transform="translate(-0.13 0)"/><path class="cls-45" d="M80.81,270.05c2.93,0,5.87,0,8.81,0-1.08,1.27-2.18,2.55-3.28,3.81l-2.8.11L82,272.73Z" transform="translate(-0.13 0)"/><path class="cls-6" d="M94.69,271.19c5.85,0,11.7,0,17.53,0q.06,4.62,0,9.25c-5.83,0-11.66,0-17.49,0C94.67,277.33,94.67,274.26,94.69,271.19Z" transform="translate(-0.13 0)"/><path class="cls-140" d="M113.62,270.55c1.66,1.22,1.21,3.4,1.31,5.21-.09,1.83.31,4-1.28,5.32A41.24,41.24,0,0,1,113.62,270.55Z" transform="translate(-0.13 0)"/><path class="cls-6" d="M119.5,271c3.79.23,7.59.22,11.38.17a60.34,60.34,0,0,0-4.43,4.88A23.28,23.28,0,0,0,119.5,271Z" transform="translate(-0.13 0)"/><path class="cls-141" d="M133.26,271.33c.54-.55,2.71-.66,1.81.61-1.29.87-2.93,2.15-4.55,1.82C130.39,272.33,132.26,271.85,133.26,271.33Z" transform="translate(-0.13 0)"/><path class="cls-6" d="M143.43,271.05c3.64.1,7.36.51,10.93-.45-1.9,3.09-.25,7-1,10.43-2.34-2.43-.82-6.08-.64-9-1.59,1.26-3.15,2.57-4.7,3.89A47.6,47.6,0,0,0,143.43,271.05Z" transform="translate(-0.13 0)"/><path class="cls-6" d="M162.54,271.1c5.78.22,11.57-.14,17.35.24,0,3,0,6.08-.24,9.12q-8.58-.1-17.15,0A44.37,44.37,0,0,1,162.54,271.1Z" transform="translate(-0.13 0)"/><path class="cls-6" d="M180.93,271.16l3.22,0a10.32,10.32,0,0,0,7,4.11l.27.57c.43,1.51.85,3,1.27,4.56-3.93-.11-7.85,0-11.78-.06Q180.91,275.77,180.93,271.16Z" transform="translate(-0.13 0)"/><path class="cls-142" d="M184.7,270.07a74,74,0,0,1,9.88.21l-2.09,2.47C189.55,275.5,186.44,272.59,184.7,270.07Z" transform="translate(-0.13 0)"/><path class="cls-6" d="M86.92,274.66c1.75-2,3.75-4,6.66-3.67,0,3.15,0,6.3-.12,9.45-3.68,0-7.36,0-11,0-.05-.47-.13-1.4-.17-1.86.31-1.21.66-2.4,1-3.61Z" transform="translate(-0.13 0)"/><path class="cls-6" d="M116.07,271.74h1.33c.1,9.56.13,19.13,0,28.68l-1.27,0C116,290.85,116.06,281.3,116.07,271.74Z" transform="translate(-0.13 0)"/><path class="cls-6" d="M157.35,272.1l1.12-.62c0,9.41.48,18.9-.18,28.25-.28-.11-.86-.31-1.15-.41C157.24,290.26,156.85,281.15,157.35,272.1Z" transform="translate(-0.13 0)"/><path class="cls-100" d="M159.8,281c.1-3.38-1.54-7.71,1-10.42C160.77,273.87,162.63,278.51,159.8,281Z" transform="translate(-0.13 0)"/><path class="cls-8" d="M118.49,271.87c2.78,1.62,1.46,6.09,1.08,8.81l-.92-.2A42,42,0,0,1,118.49,271.87Z" transform="translate(-0.13 0)"/><path class="cls-6" d="M142.67,272.89c2.09-.19,4.1,2.35,4.2,4.28-1.85-.36-2.89-2.61-4.21-3.87Z" transform="translate(-0.13 0)"/><path class="cls-5" d="M155.05,273c1.51,1.31.84,4.9.32,6.86C154.08,278.32,154.56,275,155.05,273Z" transform="translate(-0.13 0)"/><path class="cls-143" d="M121.64,274c1.51,1.15.83,4.54.38,6.36C120.52,279.1,121,275.74,121.64,274Z" transform="translate(-0.13 0)"/><path class="cls-6" d="M130,274.28l.51-.52Z" transform="translate(-0.13 0)"/><path class="cls-6" d="M128.49,279.56c1.32-2.59,3.17-5.22,6.11-6,3.76-1.43,8.16.53,10.23,3.84,2.25,2.26-2,5.61,1.18,7.7q.12,3.74,0,7.48c-3,2.18.3,4.94,0,7.49l-2.5.31c-.05-5.17,0-10.34,0-15.5-.07-1.77.17-3.7-.78-5.29a5.87,5.87,0,0,0-11.31,2.19c-.31,6.06-.06,12.14-.08,18.2l-2.86.36c.34-6.17-1.06-12.59,1.26-18.5Z" transform="translate(-0.13 0)"/><path class="cls-100" d="M125.61,278c2.23-.15,2.35-3.12,4.4-3.71-.55,1.25-1.14,2.49-1.76,3.71-1.37.34-1.72,1.19-1.06,2.58l-1.76-.95-2.05,1c0-2,0-4,.13-5.93A12.25,12.25,0,0,0,125.61,278Z" transform="translate(-0.13 0)"/><path class="cls-98" d="M131.43,281.74a5.87,5.87,0,0,1,11.31-2.19c.09,6.75.09,13.51-.07,20.27-3.77,0-7.55-.08-11.32.12C131.37,293.88,131.12,287.8,131.43,281.74Z" transform="translate(-0.13 0)"/><path class="cls-128" d="M150,276c1.45.24,1.38,4,0,4.35A4.54,4.54,0,0,1,150,276Z" transform="translate(-0.13 0)"/><path class="cls-144" d="M147.67,278.86C150.93,278.93,146.22,282,147.67,278.86Z" transform="translate(-0.13 0)"/><path class="cls-5" d="M81.42,281.61c1.72,0,3.45,0,5.17,0q0,4.56-.06,9.12H79.21c.28-1.46.56-2.92.87-4.36C80.56,284.78,81,283.2,81.42,281.61Z" transform="translate(-0.13 0)"/><path class="cls-6" d="M87.67,281.7c5-.25,10.07-.17,15.11-.07,0,3,0,6.05-.08,9.07-5,0-10,.05-15-.05C87.76,287.66,87.76,284.68,87.67,281.7Z" transform="translate(-0.13 0)"/><path class="cls-6" d="M103.84,281.62c3.67-.1,7.34-.09,11,0,.06,3,.05,6.1,0,9.14-3.63-.06-7.26-.06-10.88,0C103.85,287.68,103.84,284.65,103.84,281.62Z" transform="translate(-0.13 0)"/><path class="cls-145" d="M119.08,281.78a57.58,57.58,0,0,1,10-.1l-.73,1.26C125.39,282.85,121.18,284.37,119.08,281.78Z" transform="translate(-0.13 0)"/><path class="cls-100" d="M145.16,281.79a54,54,0,0,1,10-.09c-2.56,3-1.51,7-1.67,10.57.09,1.37,1.11,2.43,1.66,3.63a62.17,62.17,0,0,1-9.84,0c.7-.67,1.38-1.36,2-2.09a60.72,60.72,0,0,1,.16-10.18C146.72,283,145.93,282.4,145.16,281.79Z" transform="translate(-0.13 0)"/><path class="cls-6" d="M159.48,281.62c3.74-.09,7.48-.1,11.22,0,0,3,0,6.06-.09,9.1-3.68,0-7.36,0-11.05,0C159.52,287.66,159.5,284.64,159.48,281.62Z" transform="translate(-0.13 0)"/><path class="cls-6" d="M171.69,281.61c5-.1,10-.05,15.08,0,0,3,0,6.09,0,9.13-5,0-10,0-15,0C171.75,287.66,171.75,284.63,171.69,281.61Z" transform="translate(-0.13 0)"/><path class="cls-5" d="M187.8,281.64l5.21-.1c.83,3.06,1.6,6.14,2.47,9.19-2.55-.08-5.09-.05-7.63-.05C187.85,287.67,187.84,284.66,187.8,281.64Z" transform="translate(-0.13 0)"/><path class="cls-10" d="M147.78,283.1l2.46-.05c-1.55,3.87,0,8.06-1.22,12C147.83,291.13,149.66,286.87,147.78,283.1Z" transform="translate(-0.13 0)"/><path class="cls-42" d="M150.56,283.26l2.08-.36A39.55,39.55,0,0,0,152.4,293c-.17,1.36-2.25.6-1.69-.59A28.06,28.06,0,0,0,150.56,283.26Z" transform="translate(-0.13 0)"/><path class="cls-146" d="M118.49,283.91l1.37.81c-.09,3,1.32,7-1.16,9.27A57.55,57.55,0,0,1,118.49,283.91Z" transform="translate(-0.13 0)"/><path class="cls-5" d="M121,288.79c.22-1.67-.53-4,1.3-5,.17,3.31.17,6.63,0,9.93C120.43,292.82,121.29,290.45,121,288.79Z" transform="translate(-0.13 0)"/><path class="cls-5" d="M123.57,283.83c1.77,1,1.05,3.28,1.26,4.93-.24,1.66.54,4-1.28,5A86.4,86.4,0,0,1,123.57,283.83Z" transform="translate(-0.13 0)"/><path class="cls-5" d="M126.09,284.71l1.34-.79c.14,3.23.13,6.47,0,9.7l-1.4-.65A36.22,36.22,0,0,1,126.09,284.71Z" transform="translate(-0.13 0)"/><path class="cls-5" d="M154.63,283.85c2.06.78,1.11,3.23,1.39,4.86-.3,1.69.72,4.22-1.39,5.05A96.35,96.35,0,0,1,154.63,283.85Z" transform="translate(-0.13 0)"/><path class="cls-6" d="M78.33,292.4c5-1.45,10.34-.35,15.48-.66,0,2.84,0,5.66,0,8.5-5.74,0-11.5,0-17.26,0,.16-.67.5-2,.67-2.67C77.67,295.88,78,294.14,78.33,292.4Z" transform="translate(-0.13 0)"/><path class="cls-6" d="M95,291.74c5.8,0,11.6,0,17.39,0,0,2.88,0,5.75-.09,8.64-5.74-.05-11.48-.09-17.22,0C95,297.51,95,294.62,95,291.74Z" transform="translate(-0.13 0)"/><path class="cls-6" d="M113.6,291.07c2.36,2.49,1,6.24,1.26,9.3h-1.34A60,60,0,0,1,113.6,291.07Z" transform="translate(-0.13 0)"/><path class="cls-6" d="M159.57,291.45l1.31.63a68.74,68.74,0,0,1,.14,8.12l-1.47.11C159.52,297.35,159.49,294.4,159.57,291.45Z" transform="translate(-0.13 0)"/><path class="cls-6" d="M162.21,291.73c5.77,0,11.55,0,17.33,0,0,2.83.13,5.66.18,8.5-5.86.07-11.71,0-17.55,0C162.15,297.4,162.16,294.57,162.21,291.73Z" transform="translate(-0.13 0)"/><path class="cls-6" d="M180.53,291.73c5.08,0,10.17,0,15.24,0,.67,2.42,1.24,4.85,1.91,7.28l.34,1.27c-5.78,0-11.55-.06-17.32.07C180.6,297.5,180.54,294.61,180.53,291.73Z" transform="translate(-0.13 0)"/><path class="cls-147" d="M118.7,295.7c2.36-2,5.73-1.26,8.52-.94l.72,1.15A38.6,38.6,0,0,1,118.7,295.7Z" transform="translate(-0.13 0)"/><path class="cls-148" d="M118.86,299.77c-.86-1.28-.66-2.06.6-2.35C120.34,298.7,120.14,299.48,118.86,299.77Z" transform="translate(-0.13 0)"/><path class="cls-149" d="M122.15,299.79c-2.17.6-.64-4.28.41-1.75C122.46,298.48,122.26,299.35,122.15,299.79Z" transform="translate(-0.13 0)"/><path class="cls-150" d="M123.35,298c1-2.59,2.55,2.3.4,1.77Z" transform="translate(-0.13 0)"/><path class="cls-100" d="M126.64,297c1.48.23,1.48,3,0,3.23C125.24,299.9,125.27,297.36,126.64,297Z" transform="translate(-0.13 0)"/><path class="cls-150" d="M148.26,299.79c-2.16.62-.69-4.28.39-1.76C148.55,298.47,148.35,299.35,148.26,299.79Z" transform="translate(-0.13 0)"/><path class="cls-151" d="M149.88,299.71c-.85-1.3-.63-2.06.65-2.28C151.4,298.73,151.18,299.49,149.88,299.71Z" transform="translate(-0.13 0)"/><path class="cls-149" d="M152.59,297.43c1.25.28,1.46,1.07.62,2.38C151.94,299.53,151.73,298.73,152.59,297.43Z" transform="translate(-0.13 0)"/><path class="cls-152" d="M154.88,297.37c1.49-.42,1.51,3,0,2.43Z" transform="translate(-0.13 0)"/><path class="cls-2" d="M197.68,299c2.47,3.67,5.93,6.53,8.58,10.08A32.24,32.24,0,0,0,179.8,314a21.56,21.56,0,0,1-25-.41,31.53,31.53,0,0,0-27.55-3.89c-6.57,2-11.6,7.92-18.8,8-5.85.73-11.39-1.71-16.07-5a31.41,31.41,0,0,0-25.94-3.12c3.31-2.91,6-6.49,9.35-9.32q9.65.36,19.28.09c5.74-.12,11.48-.08,17.22,0h2.56l1.25,0,1.27,0q31.65.25,63.32,0c5.77-.13,11.54,0,17.32-.07Z" transform="translate(-0.13 0)"/><path class="cls-6" d="M66.45,309.61a31.41,31.41,0,0,1,25.94,3.12c4.68,3.28,10.22,5.72,16.07,5,7.2-.1,12.23-6.05,18.8-8a31.53,31.53,0,0,1,27.55,3.89,21.56,21.56,0,0,0,25,.41,32.24,32.24,0,0,1,26.46-4.88c7.91,1.93,13.83,9.37,22.46,8.68,8.12.65,13.74-6.12,21-8.25l1.59,1c-7.1,5.26-13.43,11.76-21.46,15.7a24.5,24.5,0,0,1-14.17-4.53,31.54,31.54,0,0,0-35.11,0c-4.9,3.46-11.13,5.36-17.1,4-4.51-.76-8.12-3.73-12-5.84a31.23,31.23,0,0,0-30.75,1.19c-3.43,2.22-7.07,4.39-11.22,4.87-5.65.95-11.34-1-15.93-4.26a31.53,31.53,0,0,0-30.14-2.61c-3.83,1.66-7,4.54-11,5.92a29.42,29.42,0,0,1-8.28,1.27A88.69,88.69,0,0,1,22,308.73c8.63,1.78,15,9.91,24.22,9.07C53.94,318,59.49,311.87,66.45,309.61Z" transform="translate(-0.13 0)"/><path class="cls-2" d="M63.42,319.06a31.53,31.53,0,0,1,30.14,2.61c4.59,3.22,10.28,5.21,15.93,4.26,4.15-.48,7.79-2.65,11.22-4.87a31.23,31.23,0,0,1,30.75-1.19c3.92,2.11,7.53,5.08,12,5.84,6,1.39,12.2-.51,17.1-4a31.54,31.54,0,0,1,35.11,0,24.5,24.5,0,0,0,14.17,4.53c-3.91,2.55-8.24,4.32-12.39,6.41l-.4-.24c-7.61-5.11-17.2-7.57-26.22-5.25-8.4,1.51-14.39,9.45-23.34,8.91-8.51.45-14.3-6.86-22.15-8.66a31.13,31.13,0,0,0-24.7,3.6c-3.69,2.44-7.72,4.68-12.24,5-5.85.7-11.38-1.85-16.08-5.09-10.63-6.8-25-5.74-35.14,1.56l-.24.15a96.87,96.87,0,0,1-12.81-6.4A29.42,29.42,0,0,0,52.45,325C56.41,323.6,59.59,320.72,63.42,319.06Z" transform="translate(-0.13 0)"/><path class="cls-6" d="M57.22,332.5c10.11-7.3,24.51-8.36,35.14-1.56,4.7,3.24,10.23,5.79,16.08,5.09,4.52-.29,8.55-2.53,12.24-5a31.13,31.13,0,0,1,24.7-3.6c7.85,1.8,13.64,9.11,22.15,8.66,8.95.54,14.94-7.4,23.34-8.91,9-2.32,18.61.14,26.22,5.25a74.56,74.56,0,0,1-9.3,3.84l-.42-.13a30.2,30.2,0,0,0-21.44.94c-4.91,2-8.92,6.09-14.34,6.89-6,1.29-12.19-.6-17.07-4.1a31.43,31.43,0,0,0-34.43-.21c-4.27,3-9.32,5.1-14.63,4.66-4.4-.14-8.46-2.09-12-4.5a30.89,30.89,0,0,0-26.67-3.68l-.47.13A81.61,81.61,0,0,1,57.22,332.5Z" transform="translate(-0.13 0)"/><path class="cls-2" d="M66.74,336.17a30.89,30.89,0,0,1,26.67,3.68c3.59,2.41,7.65,4.36,12,4.5,5.31.44,10.36-1.68,14.63-4.66a31.43,31.43,0,0,1,34.43.21c4.88,3.5,11.09,5.39,17.07,4.1,5.42-.8,9.43-4.86,14.34-6.89a30.2,30.2,0,0,1,21.44-.94c-1.24.67-2.48,1.32-3.79,1.87-21.3,8.24-42.71,16.18-64.13,24.09a5,5,0,0,1-4.15.2c-21.72-8-43.41-16.06-65-24.4C69.07,337.4,67.9,336.78,66.74,336.17Z" transform="translate(-0.13 0)"/></svg>